<svg xmlns="http://www.w3.org/2000/svg" width="670" height="420" fill="none"><path fill="#2856F8" d="M670 420H7.122c-20.815-81.992 4.415-171.673 79.876-203.515 34.052-14.391 78.325-17.016 125.437-15.608 10.186 24.23 18.752 48.806 24.097 69.571l.381 1.496.001.002.433 1.727c4.265 17.175 6.434 31.674 6.988 46.329l.051 1.466v.01l.072 1.768c.077 1.729.17 3.32.27 4.6.066.849.137 1.581.211 2.13.036.271.078.526.125.739.023.104.054.228.097.351.024.071.106.305.288.537l-.002.001.028.034.017.02.001-.001c.676.822 1.68 1.105 2.541 1.026.877-.082 1.843-.561 2.339-1.547h-.001c.195-.386.34-.97.456-1.499.133-.611.278-1.397.431-2.319.307-1.847.653-4.302 1.009-7.12a463.557 463.557 0 0 0 2.018-19.51c2.957-35.165 1.608-68.951-3.925-97.985 1.786.112 3.573.225 5.361.342a895.027 895.027 0 0 1 2.284 22.012l.327 3.713c2.749 32.84 3.313 65.697 1.485 90.846a128.618 128.618 0 0 0-.298 5.553 47.697 47.697 0 0 0-.025 1.885c.003.243.009.464.021.647.008.115.025.41.113.673l.015.042.017.041.117.255c.639 1.21 1.989 1.466 2.879 1.372.922-.098 2.049-.606 2.607-1.696l.105-.227c.158-.386.26-.91.34-1.418.088-.552.17-1.24.248-2.037.154-1.597.297-3.7.427-6.171.018-.329.032-.665.049-1.008.626.227 1.386.32 2.127.059v.002l.024-.01.036-.012v-.002c.564-.205.98-.617 1.236-.954a3.28 3.28 0 0 0 .63-1.415h-.002c.017-.093.029-.174.031-.19.012-.089.026-.207.043-.349.034-.286.08-.693.137-1.212.114-1.038.275-2.537.475-4.445.402-3.817.967-9.28 1.656-15.98 1.377-13.402 3.246-31.763 5.278-51.84 1.435-14.131 2.645-26.238 3.639-36.317 2.393.174 4.785.346 7.174.521-.31 2.838-.573 6.21-.795 10.197-.543 9.733-.86 23.278-1.035 41.946l-.069 7.95c-.056 7.115-.071 11.819-.034 14.897.025 2.044.072 3.415.152 4.312.04.442.092.83.171 1.147.04.16.098.348.19.535.087.18.251.448.544.666l.001-.002c.189.142.369.221.438.249.118.049.24.089.35.121.222.067.493.132.789.197.597.13 1.397.277 2.33.43 1.872.309 4.352.659 6.987.987l.001-.001c4.585.58 7.063.897 8.446.961.67.03 1.302.018 1.847-.17.679-.235 1.03-.671 1.234-.951v.001c.185-.249.383-.522.532-.794.155-.285.317-.673.327-1.147a2.37 2.37 0 0 0-.307-1.184 6.14 6.14 0 0 0-.521-.768l-.001.002c-.371-.496-.909-.745-1.298-.889-.45-.166-1.016-.305-1.689-.434-1.354-.262-3.405-.538-6.412-.907l-.003-.001a828.65 828.65 0 0 1-5.715-.704c-.707-.09-1.302-.169-1.751-.231a19.407 19.407 0 0 1-.061-.797c-.079-1.358-.112-3.555-.112-6.947v-7.415l15.596-.08h.005c7.87-.065 12.206-.109 14.623-.231 1.187-.06 2.029-.141 2.626-.291.311-.078.637-.193.936-.388.298-.194.507-.429.661-.669l.002.001c.282-.421.516-.948.516-1.58 0-.62-.225-1.145-.486-1.566l-.006-.009c-.393-.625-.982-.916-1.642-1.072-.589-.139-1.423-.217-2.61-.274-2.414-.115-6.749-.159-14.62-.224h-.005l-15.596-.079v-6.896c0-16.096.931-37.549 1.936-47.427 15.051 1.094 29.962 2.145 44.505 2.916a77.352 77.352 0 0 0-.301 2.128l-.001-.001c-1.629 12.569-2.328 28.207-2.721 59.362l-.286 21.364-5.282-.202h-.006c-3.764-.131-10.355-.348-14.676-.522h-.003c-5.684-.217-8.842-.139-11.243.283l-.011.002c-15.23 2.785-25.293 11.874-27.695 25.463l-.002.013-.059.383c-.281 1.974-.337 4.818-.238 7.381a45.01 45.01 0 0 0 .295 3.839c.134 1.054.329 2.111.647 2.794l.01.021.612 1.261.409.843.937.002 57.038.129h.001c15.692.022 30.063.022 40.577 0 5.256-.01 9.55-.027 12.564-.048 1.507-.011 2.698-.024 3.53-.037.415-.007.747-.014.987-.022.119-.004.225-.009.31-.014.015 0 .129-.005.259-.026l.136-.027c.547-.136 1.15-.41 1.59-.978.437-.565.554-1.216.554-1.781 0-.024.004-.047.005-.068.071-.073.128-.143.163-.187.081-.104.17-.231.256-.359.179-.265.418-.641.703-1.101.573-.926 1.369-2.257 2.327-3.887a768.766 768.766 0 0 0 5.772-10.032l.137.112c.686.549 1.548 1.627 2.406 3.099a25.525 25.525 0 0 1 1.955 4.238l.219.645.003.008.175.496c.432 1.142 1.038 2.167 1.916 2.74.555.363 1.227.546 1.944.418.598-.107 1.103-.406 1.512-.771l.17-.16c.198-.197.402-.427.57-.711 1.867 1.549 5.204.381 5.204-2.569l.002-.037.01-.122c.01-.104.024-.239.045-.403.042-.329.104-.751.181-1.239.117-.73.266-1.593.434-2.485l.174-.899.002-.008.001-.009c.305-1.647.504-2.867.577-3.745.036-.438.048-.858.004-1.236-.042-.362-.153-.849-.494-1.273l-.019-.024-.02-.024c-1.686-1.927-4.595-1.198-5.493 1.036l-.002.006c-.445 1.118-.935 3.603-1.275 5.789-.065.42-.125.839-.181 1.245a30.636 30.636 0 0 0-1.639-3.476c-1.041-1.889-2.278-3.664-3.492-4.796l-.007-.006a10.92 10.92 0 0 0-1.858-1.404c3.913-6.865 7.283-12.772 8.649-15.167l7.854 15.658.002.003 1.848 3.644c1.802 3.54 3.449 6.73 4.764 9.231a203.206 203.206 0 0 0 2.144 3.996c.267.479.493.872.666 1.156a7.3 7.3 0 0 0 .25.386c.038.053.093.128.158.203a1.729 1.729 0 0 0 .427.351l.153.076.037.014.036.014.158.053c1.638.498 3.408-.513 3.891-2.114.074-.247.074-.459.07-.559a2.34 2.34 0 0 0-.037-.322c-.014-.071-.032-.142-.05-.213l.069.013c.835.112 1.558-.207 2.087-.711.486-.463.82-1.082 1.063-1.711a11.14 11.14 0 0 0 .475-1.652l.123-.629.002-.013c.099-.592.184-1.233.254-1.89.236.215.498.398.792.535.466.217.926.287 1.365.253-.222.502-.425.972-.597 1.396a20.636 20.636 0 0 0-.522 1.395 5.705 5.705 0 0 0-.155.565c-.019.09-.039.203-.049.325a1.82 1.82 0 0 0 .036.542h-.002l.006.022a.57.57 0 0 0 .003.017h.002c.102.427.311.83.554 1.157.238.321.581.668 1.031.909.469.285 1.117.521 1.88.344.722-.168 1.262-.644 1.664-1.105.693-.795 1.461-2.123 2.435-4.018l.43-.847c1.072-2.131 1.8-3.809 2.101-5.051.147-.61.239-1.289.093-1.928-.171-.743-.652-1.354-1.401-1.647l.001-.001c-.005-.002-.011-.003-.016-.006l-.021-.008v.001c-.425-.17-1.025-.38-1.689-.322a2.563 2.563 0 0 0-.858.231c.042-.065.083-.131.12-.199.601-1.093.456-2.344-.338-3.33l-.029-.038-.032-.035c-.453-.495-1.023-.805-1.735-.924a3.97 3.97 0 0 0-.417-.045c.711-.811 1.367-1.641 1.594-2.504a2.534 2.534 0 0 0-.071-1.568c-.183-.483-.491-.855-.775-1.137-.856-.851-1.984-1.152-3.126-.825-1.025.294-1.909 1.045-2.637 1.944l-.006.007c-.048.059-.093.121-.14.182a25.502 25.502 0 0 0-.053-.669c-.058-.592-.146-1.237-.274-1.618l-.017-.055-.024-.052c-.272-.644-.784-1.032-1.232-1.246a3.584 3.584 0 0 0-1.405-.332c-.841-.03-1.996.209-2.753 1.085l-.001-.001-.008.011-.011.011.001.001a2.502 2.502 0 0 0-.482.921 4.49 4.49 0 0 0-.159.896c-.037.449-.028.954.019 1.492l.06.546v.002l.058.419a7.76 7.76 0 0 0-.971-.502v-.001c-.561-.252-1.043-.47-1.432-.619-.361-.137-.841-.298-1.351-.284a2.18 2.18 0 0 0-1.489.645c-.265.257-.496.597-.658.831l-.001-.001a3.51 3.51 0 0 0-.619 1.339l-.021-.042a1254.099 1254.099 0 0 1-6.621-13.4 298.842 298.842 0 0 1-2.011-4.21 57.939 57.939 0 0 1-.481-1.063c.093-.188.211-.426.357-.708.406-.783.993-1.877 1.703-3.182a839.808 839.808 0 0 1 5.263-9.486 848.285 848.285 0 0 1 5.444-9.553c.676-1.164 1.27-2.168 1.74-2.948.525.898 1.247 2.211 2.23 4.069 1.948 3.679 4.877 9.406 9.254 18.072l4.877 9.68c5.268 10.498 9.664 19.121 12.799 25.143a394.051 394.051 0 0 0 3.716 7.006 60.32 60.32 0 0 0 1.078 1.905c.133.222.255.418.36.571a3.2 3.2 0 0 0 .19.251c.036.042.093.106.167.174.049.045.22.201.483.305l.021.009.023.008.24.074c1.18.301 2.269-.325 2.962-1.004l.918-.869.811-.767-.502-.996-1.255-2.493c.584.289 1.21.52 1.886.706l.525.134.011.003.546.112c1.267.234 2.477.259 3.49.005.976-.244 2-.838 2.42-1.932.075.209.147.401.216.574.082.203.168.402.257.575.06.116.202.386.434.614l-.001.001.014.012.02.022.001-.001c.812.78 1.911.918 2.759.758.644-.121 1.389-.466 1.893-1.108a3.467 3.467 0 0 0 1.703.449 3.14 3.14 0 0 0 1.293-.258l.005.04h23.396c12.105 0 18.074.025 21.211-.312 1.571-.169 2.704-.449 3.576-1.058.847-.591 1.317-1.443 1.684-1.998h-.001c.381-.567.559-1.219.677-2.227.12-1.017.2-2.593.26-5.153.091-3.856.138-10.074.184-20.254l.046-11.558v-.001c.065-19.343.066-29.748-.165-35.741-.232-6.01-.699-7.814-1.696-9.823l-.004-.006-.235-.458c-.545-1.039-1.072-1.869-1.737-2.579-.772-.821-1.654-1.401-2.765-2h-.001c-.966-.519-1.734-.818-3.232-.94-1.361-.111-3.42-.085-6.99-.02l.001.001-6.75.075-.27-.664-.004-.011c-1.465-3.515-4.714-6.172-8.567-7.056v.001c-2.107-.486-4.566-.489-6.848-.136-2.271.352-4.525 1.079-6.166 2.175l-.015.01-.014.011c-1.086.764-2.107 1.905-2.855 3.042-.576.876-1.116 1.938-1.3 2.956l-.084.008c-1.29.107-3.92.109-9.366.109-4.471 0-7.269.032-9.018.133-.869.05-1.546.12-2.065.229-.485.102-1.066.282-1.513.726-.279.277-.389.6-.419.687a3.238 3.238 0 0 0-.113.42c-.053.259-.097.578-.136.938-.078.728-.15 1.755-.217 3.079-.135 2.655-.253 6.594-.36 11.918-.213 10.653-.377 26.904-.508 49.633v.002c-.038 7.992-.06 12.604.006 15.405l-11.852-23.542-17.603-35.09 7.515-13.253 7.522-13.234h5.073c2.956 0 4.923-.043 6.131-.359.65-.169 1.338-.478 1.805-1.129.455-.634.513-1.34.513-1.837 0-.675-.214-1.437-.926-2.012-.585-.472-1.356-.685-2.122-.815-1.566-.264-4.154-.325-8.242-.325h-4.972l.057-.069c2.495-3.047 4.868-7.888 6.479-13.017l.313-1.029v-.002c.57-1.963.894-3.187 1.022-4.797.054-.681.071-1.429.066-2.334a215.2 215.2 0 0 0 32.889-12.73 581.063 581.063 0 0 1 2.555 19.745l.353 3.241.291 2.704c.262 2.386.45 3.86.663 4.774.141.605.345 1.227.784 1.712.474.524 1.057.693 1.309.773l.001-.001c.551.177 1.333.32 2.13-.058.772-.365 1.216-1.06 1.506-1.708.495-1.104.886-2.889 1.335-5.473l.196-1.158.001-.003a407.6 407.6 0 0 0 3.979-32.55 265.376 265.376 0 0 0 3.91-2.302c-.176 8.276-.106 13.018.147 18.126l.001.009v.01l.12 1.839c.122 1.81.253 3.506.381 4.898.086.926.171 1.731.253 2.35.041.309.084.587.127.818.033.17.087.423.175.652h-.002c.374 1.001 1.062 1.934 2.132 2.301 1.149.393 2.262-.023 3.061-.782l.028-.028.027-.029c.434-.458.899-1.03.98-1.999.059-.721-.111-1.617-.337-2.723v-.001c-.068-.327-.146-1.09-.216-2.319a149.995 149.995 0 0 1-.172-4.561c-.092-3.649-.136-8.39-.134-13.638.002-2.89.02-5.932.05-9.027 39.857-25.503 72.293-60.348 115.456-91.452A472.571 472.571 0 0 1 670 58.898V420ZM224.984 276.282a3.28 3.28 0 0 0-2.364 1.154c-.702.837-.6 1.907-.45 2.778.127.734.376 1.727.748 3.077l.414 1.473.001.002.629 2.255c2.326 8.528 3.822 16.513 4.658 24.853a7.903 7.903 0 0 0-1.592-.405v-.001a52.823 52.823 0 0 0-1.733-.263 4.08 4.08 0 0 0 .21-.662c.175-.767.202-1.753.202-3.027 0-.965-.058-1.866-.164-2.591a7.15 7.15 0 0 0-.214-1.016c-.071-.234-.227-.704-.589-1.064-.524-.521-1.267-1.035-2.189-1.024-1.01.013-1.706.637-2.111 1.261-.394.608-.634 1.376-.783 2.179-.153.824-.229 1.788-.229 2.863 0 1.255.04 2.222.19 2.944.152.736.463 1.425 1.132 1.895l.138.091.069.042c-.216.518-.377 1.13-.294 1.777a3.79 3.79 0 0 0-1.323-.362 2.898 2.898 0 0 0-1.721.378c-.573.34-.981.877-1.183 1.523l-.001.004c-.163.527-.081 1.055-.006 1.396.087.392.234.826.419 1.286l.033.079c-.571-.298-1.223-.353-1.749-.298a2.537 2.537 0 0 0-.028-1.16c-.157-.599-.509-1.058-.854-1.402a3.31 3.31 0 0 0-.958-.674 5.68 5.68 0 0 0 1.124-.096c.61-.127 1.263-.427 1.689-1.089.379-.589.423-1.241.423-1.684 0-.298-.016-.671-.119-1.058a2.523 2.523 0 0 0 1.435-.762c.488-.521.694-1.177.765-1.79h.002c.051-.354.062-.75-.033-1.172a3.11 3.11 0 0 0-.525-1.135c-.438-.608-1.128-1.176-1.944-1.795l-.006-.005c-1.15-.864-2.256-1.563-3.29-1.753-.58-.107-1.208-.069-1.802.241-.572.298-.954.768-1.218 1.226l-.02.036-.019.037-.146.315c-.138.33-.247.703-.27 1.112-.031.58.116 1.117.396 1.603.193.336.457.652.771.961-1.83-.33-3.287-.479-4.36-.326-.671.096-1.399.335-1.946.921-.567.607-.724 1.352-.724 1.998 0 .461.049 1.052.354 1.62.324.605.831.992 1.379 1.254.518.247 1.145.418 1.841.562.355.074.753.145 1.194.217l1.458.222h.007a66.66 66.66 0 0 0 1.618.206c-.053.014-.106.03-.159.047-.953.305-1.936 1.045-2.98 1.954l-.011.009c-1.012.897-1.872 1.805-2.256 2.767-.211.531-.298 1.127-.149 1.745.146.604.482 1.083.856 1.455.31.308.731.641 1.291.806.592.174 1.164.111 1.679-.067.663-.23 1.364-.707 2.129-1.323-.118.399-.243.82-.362 1.21l-.009.03-.008.029a12.113 12.113 0 0 0-.318 1.701 6.55 6.55 0 0 0-.044.781c.002.205.018.561.147.905l.012.031.119.257c.644 1.22 1.994 1.455 2.91 1.339a4.05 4.05 0 0 0 2.792-1.702l.022-.031c.571-.883.936-2.285 1.118-3.458.096-.62.154-1.257.154-1.836 0-.048-.003-.098-.004-.148l.352.655.006.011.963 1.744a164.235 164.235 0 0 1 1.978 3.717l.007.013.007.013.196.356c.474.816 1.063 1.54 1.801 1.962.449.257.983.416 1.564.372a2.73 2.73 0 0 0 1.496-.608l.031-.024.029-.027a3.72 3.72 0 0 0 .85-1.129c.17-.345.315-.772.348-1.23l.008-.198-.01-.193a2.691 2.691 0 0 0-.086-.45 6.322 6.322 0 0 0-.165-.521 20.999 20.999 0 0 0-.505-1.25 70.794 70.794 0 0 0-1.545-3.262c-.824-1.641-1.774-3.416-2.525-4.649.181.057.364.108.549.151.669.156 1.459.257 2.354.325v.001c1.201.103 2.151.167 2.855.033.095-.018.189-.041.283-.068.021.333.045.666.064 1.001l.06 1.134v.002l.075 1.569c.069 1.544.118 2.995.142 4.186.016.796.021 1.468.015 1.971-.008.574-.03.771-.025.746l-.005.024-.005.022c-.287 1.573.433 2.986 1.558 3.706a3.104 3.104 0 0 0 2.007.488c.761-.084 1.456-.463 1.983-1.084l.01-.012c.297-.358.404-.793.446-.972.061-.256.105-.55.139-.852.069-.611.112-1.399.136-2.296.047-1.804.018-4.171-.07-6.723-.175-5.096-.592-11.047-1.15-14.885l-.001-.006c-.816-5.483-2.137-12.013-3.434-17.398-.649-2.692-1.297-5.119-1.878-6.994-.29-.936-.57-1.755-.83-2.409-.24-.601-.524-1.228-.863-1.647l-.019-.023-.021-.024c-.662-.752-1.608-1.034-2.446-.996Zm170.337 55.402a1.118 1.118 0 0 1-.001 0 2.41 2.41 0 0 0 .001 0Zm.351-.122-.014.004c.039-.017.078-.035.114-.055l-.1.051Zm-164.317-1.084.099.107a2.481 2.481 0 0 1-.099-.106l-.091-.116c.029.04.06.078.091.115Zm17.75-.19c-.025.071-.05.129-.073.174-.017.032-.037.062-.056.092.019-.031.039-.061.056-.093.023-.045.048-.103.073-.174v.001Zm.353-1.436c-.033.166-.065.321-.096.464l-.092.396c.059-.241.122-.529.188-.861v.001Zm-26.215-.792c.103.159.208.302.312.432-.045-.056-.092-.114-.137-.176l-.175-.256Zm-.348-.597.173.312a7.405 7.405 0 0 1-.174-.312l-.375-.726c.167.319.297.568.376.726Zm-8.093-.025a2.568 2.568 0 0 1-.334.144l-.029.008c.123-.041.245-.091.363-.152Zm-1.881.062-.081-.06-.008-.008a.995.995 0 0 0 .089.068Zm51.295-.93a7.133 7.133 0 0 1-.173.838l-.031.091a6.28 6.28 0 0 0 .204-.929Zm174.905.582c-.092.059-.19.11-.29.151l-.155.053c.104-.03.205-.072.302-.122l.143-.082Zm-226.584-.124.045.098a.799.799 0 0 1-.046-.098l-.022-.074-.004-.025a.54.54 0 0 0 .027.099Zm227.284-.837a.201.201 0 0 1-.006.06 1.439 1.439 0 0 1-.001 0l.007-.06Zm117.512-17.02c-.978-.616-2.15-.669-3.141-.031-.957.616-1.483 1.707-1.654 2.845l.001.001c-.129.754-.38 3.008-.613 5.264-.096-.263-.2-.529-.31-.788a15.501 15.501 0 0 0-.841-1.697 7.529 7.529 0 0 0-.473-.72 3.119 3.119 0 0 0-.65-.664l-.024-.017-.023-.014a4.73 4.73 0 0 0-.629-.353c-.15-.069-.543-.245-.986-.245-.658 0-1.17.361-1.386.524a5.02 5.02 0 0 0-.792.769c-.23.275-.452.592-.625.92-.151.286-.358.755-.358 1.286 0 .515.202 1.105.352 1.503.18.475.42 1.004.673 1.504.252.499.535 1.001.808 1.417.135.206.283.413.436.595.123.145.346.391.649.57l-.001.001.005.002.022.014.001-.002c.909.526 1.962.324 2.601.073a3.74 3.74 0 0 0 1.24-.8l-.009.26c-.02.827.013 1.578.177 2.206.177.679.545 1.337 1.255 1.749.622.36 1.309.404 1.813.404.405 0 1.096-.031 1.722-.501.609-.458.893-1.132 1.065-1.733.251-.878.423-2.235.611-4.246l.195-2.238.001-.006c.214-2.659.336-4.239.293-5.207-.023-.5-.093-1.011-.322-1.484-.251-.515-.61-.818-.865-1.012l-.012-.009-.014-.01-.192-.13Zm16.059-15.71c-.634-1.172-1.841-1.65-2.988-1.448-1.09.191-2.025.954-2.556 2.009l.001.001c-.738 1.435-.843 3.119-.565 4.5a3.156 3.156 0 0 0-.758-.783l-.022-.015-.018-.014-.05-.042a3.527 3.527 0 0 1-.159-.145 9.39 9.39 0 0 1-.444-.459 13.84 13.84 0 0 1-.978-1.201l-.018-.024-.017-.023a10.214 10.214 0 0 0-1.067-1.201c-.348-.323-.785-.647-1.324-.811-1.305-.397-2.298.35-2.909.958-.252.251-.583.599-.802 1.038a2.44 2.44 0 0 0-.195 1.647c.109.494.351.955.602 1.366.26.426.607.922 1.022 1.497l.008.009.007.01.366.479c.832 1.054 1.675 1.906 2.517 2.437-.342.004-.701.014-1.064.034l.001.001c-.649.033-1.192.063-1.629.11-.418.044-.864.112-1.261.269a2.229 2.229 0 0 0-1.163.998c-.216.391-.281.803-.316 1.051-.216 1.176.241 2.389 1.185 3.088l-.001.002.022.013.006.006.001-.001c.481.356 1.072.543 1.563.651a8.98 8.98 0 0 0 1.696.188 9.59 9.59 0 0 0 2.04-.165l-.35.715-.004.008c-1.801 3.756-3.098 6.783-3.858 9.006-.378 1.104-.644 2.067-.76 2.848-.058.39-.088.79-.055 1.169.031.353.132.848.474 1.282l-.001.001.009.009.003.006.001-.001c.391.491.935.783 1.397.942a3.588 3.588 0 0 0 1.644.17c.373-.054.811-.17 1.241-.464.415-.285.714-.662.955-1.058.445-.734.877-1.869 1.451-3.495.765-2.113 2.314-5.753 3.395-8.075 1.082-2.258 1.747-3.68 1.995-4.633.134-.516.205-1.098.021-1.695-.182-.591-.553-.98-.782-1.207l-.152-.148c-.382-.354-.939-.77-1.667-.857-.945-.113-1.675.363-2.172.86a2.494 2.494 0 0 0-.598-.985 1.636 1.636 0 0 0-.284-.224 2.76 2.76 0 0 0 .498-.269l.205-.153.016-.014c.875-.739 1.187-1.843 1.153-2.78a3.359 3.359 0 0 0-.023-.278c.288.509.697 1.001 1.277 1.299a2.346 2.346 0 0 0 1.995.082c-.076.468-.014.913.08 1.296l.058.215c.147.589.437 1.228 1.022 1.686a2.584 2.584 0 0 0 1.577.538 2.197 2.197 0 0 0-.061.16c-.267.796.001 1.472.233 1.896l.096.166.137.201c.336.449.799.753 1.171.944.404.208.868.369 1.338.45l.201.031.046.006.046.003.235.021c.605.071 1.589.277 2.251.507l.034.012.035.01.347.09c1.744.401 3.682.018 4.35-1.719.71-1.844-.668-3.525-2.382-4.368v-.001c-.966-.48-2.007-.791-3.031-.876 1.06-.821 1.903-1.61 2.388-2.406.297-.489.519-1.075.493-1.733-.027-.676-.307-1.24-.676-1.684a3.168 3.168 0 0 0-1.304-.963 3.003 3.003 0 0 0-1.659-.127c-1.005.195-1.992.839-2.95 1.632l-.016.014a41.796 41.796 0 0 1-2.076 1.635c.218-.578.39-1.223.504-1.857.118-.651.185-1.332.173-1.959-.011-.575-.089-1.306-.417-1.911Zm-134.433 26.764c.777 1.653 1.365 2.961 1.749 3.899.191.465.344.866.445 1.185.028.09.055.185.08.282-.628-.102-1.155-.425-1.578-.793l-.182-.166-.049-.049a3.815 3.815 0 0 1-.648-.878 3.252 3.252 0 0 1-.341-1.233c-.062-.709.038-1.644.205-2.918.109.23.217.453.319.671Zm10.878 4.487a1.797 1.797 0 0 1-.11.085l.11-.085Zm-32.628-5.849c.338.853.628 1.702.845 2.517l.16.619c.148.607.246 1.174.21 1.686-.034.478-.177.86-.365 1.175-.444-.368-.806-.89-1.019-1.579l-.049-.175-.004-.013-.004-.015c-.084-.347-.085-.761-.077-1.067.008-.357.037-.78.079-1.236.053-.573.131-1.226.224-1.912Zm-.888 5.749-.112.093a2.28 2.28 0 0 0 .111-.093l.111-.104a3.504 3.504 0 0 1-.11.104Zm19.851.08c-.102-.188-.211-.384-.321-.589l-.317-.598c.228.427.442.824.638 1.187Zm118.679-.446v.001l-.317-.01-.005-.001c.101.008.208.01.322.01Zm-230.351-.198-.044.136c.018-.05.036-.112.057-.185l-.013.049Zm117.339.055-.11.018a.99.99 0 0 0 .109-.018l.109-.033a1.033 1.033 0 0 1-.108.033Zm-46.046-.272.055.185a1.87 1.87 0 0 1-.056-.185l-.068-.299c.025.118.049.218.069.299Zm165.174-.031.088.06a1.384 1.384 0 0 1-.089-.06l-.08-.065c.026.023.053.044.081.065Zm-118.331-.331-.092.126c.05-.065.097-.136.145-.212-.018.029-.034.058-.053.086Zm53.606-6.075c-.537 2.001-.97 3.409-1.458 4.326-.286.537-.659 1.044-1.203 1.396-.124.08-.25.145-.374.2l-.16-1.272-.127-1.013-.028-.201c-.067-.523-.113-1.392.454-2.145.616-.817 1.641-1.092 2.56-1.242.107-.017.219-.034.336-.049Zm-56.054 5.76c.022.035.048.068.073.102a2.77 2.77 0 0 1-.082-.117l.009.015Zm49.57-6.595c.22.932.419 1.815.575 2.579.138.671.25 1.273.317 1.743.033.232.059.46.069.661.005.1.008.218 0 .341a1.826 1.826 0 0 1-.118.564h-.002a2.624 2.624 0 0 1-.388.678 2.519 2.519 0 0 1-.986-1.01l-.101-.219-.008-.02-.007-.02a2.225 2.225 0 0 1-.127-.68 4.711 4.711 0 0 1 .011-.519c.023-.337.075-.732.143-1.147.137-.836.353-1.856.6-2.862l.022-.089Zm-71.344 5.957c.006.084.015.155.028.21a2.083 2.083 0 0 0-.001 0l-.021-.12c-.003-.028-.004-.058-.006-.09Zm-203.282-3.637c-.043.212-.11.417-.196.612-.357.81-1.098 1.589-1.993 2.383l-.393.341c-.283.243-.558.473-.824.687.193-.652.366-1.249.437-1.578l.012-.059.018-.058c.399-1.322 1.587-2.05 2.582-2.27a2.96 2.96 0 0 1 .357-.058Zm236.171 3.831-.031.052c.053-.091.105-.185.16-.282-.044.079-.086.156-.129.23Zm24.437-.06a7.955 7.955 0 0 1-1.284-.786c-.925-.698-1.656-1.577-2.295-2.641l-.269-.467-.006-.012-.007-.013c-.249-.473-.505-.962-.685-1.714-.169-.705-.261-1.591-.317-2.903a71.265 71.265 0 0 1-.038-1.195l4.901 9.731Zm10.842-.272c.025.025.053.047.08.069-.027-.022-.055-.043-.08-.068l-.073-.091c.026.04.051.07.073.09Zm-279.207-.347c.046.077.099.152.161.227l-.015-.016a1.737 1.737 0 0 1-.146-.211Zm6.254-.391-.142.571c.06-.223.109-.419.141-.571l.042-.119c.009-.022.02-.044.03-.065-.027.059-.052.12-.071.184Zm17.165-.246.03.722-.034-.82.004.098Zm-13.913-2.217c.458.238.864.63 1.11 1.252l.002-.001c.199.496.254 1.079.262 1.582l-.207-.385c-.5-.954-.89-1.771-1.167-2.448Zm6.471 1.733.446.857a96.01 96.01 0 0 0-.446-.856l-.441-.827c.145.268.293.545.441.826Zm260.108-2.974c.121.064.239.138.352.221.489.361.808.853.949 1.424.127.517.092 1.031.024 1.466h-.001a2.977 2.977 0 0 1-.166.631 33.58 33.58 0 0 1-.32-.941 78.817 78.817 0 0 1-.838-2.801Zm-271.496 2.8-.389.339c-.075.065-.15.126-.222.187.072-.061.147-.123.222-.188a22.246 22.246 0 0 0 .389-.338Zm339.962-3.486c.122.334.23.663.311.969.071.271.134.561.161.842.02.205.045.626-.119 1.057h.002l-.021.048c-.004.011-.007.024-.012.035h-.002a2.814 2.814 0 0 1-.631.927 42.11 42.11 0 0 1 .131-2.009l.083-.922.001-.01.096-.937Zm-108.352 3.39c-.015.084-.033.166-.049.248.015-.081.033-.164.048-.248l.051-.323-.05.323Zm.093-.604-.018.118.05-.354c-.011.079-.02.158-.032.236Zm-39.284-54.862 8.526 17.034-.569.583.001.001c-1.198 1.221-1.865 2.733-1.873 4.292-.007 1.471.575 2.874 1.661 3.981l.224.218.44.408-8.679 15.307-.001-.001a1274.497 1274.497 0 0 1-6.624 11.529c-.305.522-.59 1.009-.853 1.455a470.5 470.5 0 0 1-1.157-7.944c-.88-6.371-1.793-13.62-2.117-17.21l-.001-.007c-.261-2.746-.462-9.726-.537-16.384l-.025-2.821c0-7.4.068-11.685.397-14.862.282-2.724.756-4.633 1.584-7.024l.377-1.058c.334-.913.732-1.862 1.097-2.645.086-.182.167-.349.242-.5l7.887 15.648Zm45.65 49.37c.301.485.524.998.602 1.542.18 1.252-.43 2.223-1.271 2.898l-.008.007-.008.006c-.534.417-1.183.736-1.885.789.339-.764.727-1.601 1.143-2.454l.004-.008a79.146 79.146 0 0 1 1.423-2.78Zm-34.405 4.404.289.72a26.423 26.423 0 0 0-.29-.72l-.312-.72c.108.239.213.48.313.72Zm23.051.309-.002.012-.037.285a341.58 341.58 0 0 0-1.577-3.28 9.027 9.027 0 0 0 2.126-.593c-.142.959-.307 2.136-.51 3.576Zm14.865-.888-.323.674a43.426 43.426 0 0 0 .323-.674Zm-8.226-6.164c1.188-.53 2.524-.069 3.499.844l.229.229c.107.116.211.234.313.354-1.258.305-2.481.441-3.484.111a3.28 3.28 0 0 1-.363-.147c.034.568.042 1.234.026 1.935a43.01 43.01 0 0 1-.232 3.467c-.593-.54-1.013-1.285-1.323-2.036h-.001c-.609-1.449-.569-3.133.504-4.186.278.365.632.634 1.026.82-.006-.112-.011-.221-.02-.325a6.703 6.703 0 0 0-.13-.902c-.012-.052-.028-.107-.044-.164Zm35.171 6.643c-.115-.008-.228-.014-.338-.025l-.053-.007c.127.013.257.023.391.032Zm-155.555-.061c.024-.109.046-.218.071-.328l.053-.225c-.043.186-.084.37-.124.553Zm-96.314-6.913c.645.245 1.221.586 1.663 1.052.414.437.715.991.799 1.638.082.642-.063 1.256-.334 1.796l-.023.045-.026.045-.118.191c-.015.022-.032.043-.047.066.018.274.038.549.055.824l.069 1.138a174.93 174.93 0 0 0-.124-1.962 2.52 2.52 0 0 1-1.438 1.047 157.182 157.182 0 0 0-.476-5.88Zm249.866 6.59-.179-.07-.06-.028c.078.034.157.067.239.098Zm-.293-.121-.058-.026-.165-.081c.072.038.147.073.223.107Zm75.506-3.569c-.12 1.073-.254 2.337-.377 3.563l.201-1.953c.06-.563.12-1.107.176-1.61Zm-106.263 3.508-.104.01c.034-.002.068-.005.103-.01l.106-.018c-.035.007-.07.014-.105.018Zm-25.063-.073.088-.482.176-.912c-.092.468-.181.937-.264 1.394Zm25.794-.216a1.946 1.946 0 0 1-.193.114l-.219.095c.136-.049.272-.12.412-.209Zm.03-.015-.03.015c.06-.038.12-.079.181-.124l-.151.109Zm62.718-55.263c.129 2.152.259 5.641.259 7.688 0 1.44.042 2.531.171 3.352.126.802.368 1.57.944 2.159h-.001c.185.194.412.431.649.616.263.205.645.436 1.156.489.485.05.894-.081 1.169-.192a5.57 5.57 0 0 0 .415-.19l.415-.218c.288-.151.755-.423 1.085-1.012.282-.501.38-1.09.433-1.675.107-1.189.082-3.273.017-7.004l-.001-.008-.14-6.376h3.843c2.04 0 3.457-.029 4.421-.127l-.001.008c-.192 1.516-.47 3.684-.811 6.342-.683 5.318-1.622 12.597-2.649 20.549a2035.786 2035.786 0 0 0-2.592 20.778c-.323 2.729-.578 4.99-.744 6.615a81.1 81.1 0 0 0-.183 1.96 16.84 16.84 0 0 0-.038.623v.006h-10.647c-6.208 0-9.819.024-11.843.296.057-.214.119-.433.178-.66.326-1.186.534-2.092.571-2.807.043-.839-.145-1.51-.613-2.114l-.017-.023-.02-.022c-1.137-1.358-3.547-1.734-4.866-.048l.001.001c-.235.294-.406.663-.518.926-.139.33-.281.721-.417 1.138a40.155 40.155 0 0 0-.783 2.774c-.168-.715-.349-1.459-.537-2.202-.432-1.71-.898-3.432-1.303-4.785a34.524 34.524 0 0 0-.561-1.741 9.993 9.993 0 0 0-.252-.637 2.698 2.698 0 0 0-.379-.64v-.001c-.146-.174-.344-.411-.554-.599a2.088 2.088 0 0 0-1.152-.541c-.488-.058-.899.08-1.145.179-.249.1-.526.244-.78.375l-.032.016-.031.019c-1.095.635-1.578 1.812-1.578 2.948v.034c.015.654.243 1.844.522 3.104.293 1.324.686 2.903 1.097 4.437.127.476.258.949.387 1.411a4.089 4.089 0 0 0-1.084-.379c-.486-.105-1.044-.162-1.655-.197h-.011c-1.167-.057-1.88-.307-2.33-.627-.421-.299-.756-.761-.97-1.564l-.002-.008-.002-.007a1.825 1.825 0 0 1-.023-.133 8.836 8.836 0 0 1-.046-.418c-.031-.36-.059-.849-.084-1.48-.048-1.26-.08-3.036-.093-5.388-.021-3.526-.002-8.318.055-14.554l.071-6.725.289-25.894h7.71l-.202 5.308v.002c-.109 2.928-.157 4.737-.092 5.872.061 1.06.231 2.022 1.035 2.695h-.001l.038.032.031.026h.001c.419.346.916.547 1.348.654.457.114.974.157 1.473.086l.212-.028c.291-.047.784-.172 1.198-.554.536-.496.698-1.177.782-1.669.175-1.027.231-2.915.338-6.266.087-1.902.184-3.682.286-5.019.042-.547.087-1.007.127-1.365.326-.035.768-.069 1.349-.097 1.676-.079 4.32-.112 8.277-.112h9.231l.199 2.588Zm62.425 46.126c-1.781 0-2.766 1.437-3.039 2.596-.265 1.127-.048 2.808 1.443 3.627.009.008.026.023.048.045.048.047.104.113.16.19.122.171.174.31.184.355l.008.034.009.035.058.205c.154.493.427 1.069 1.004 1.482.63.451 1.356.515 1.917.515.838 0 1.659-.232 2.298-.793.647-.568.955-1.339 1.007-2.111.1-1.475-.695-3.026-1.941-4.266a11.498 11.498 0 0 0-1.421-1.21 5.534 5.534 0 0 0-.705-.432c-.183-.091-.572-.272-1.03-.272Zm-96.073 8.925-.03-.025-.128-.116c.051.049.104.095.158.141Zm-210.091-32.834a989.063 989.063 0 0 1-.182 15.199c-.131 6.516-.325 12.594-.561 17.396a3.789 3.789 0 0 1-.624-.29c-.673-.392-1.581-1.227-1.581-2.464 0-.115.026-.378.045-.589l.113-1.191c.099-1.027.244-2.516.432-4.416.375-3.801.918-9.253 1.587-15.948l.771-7.697Zm209.584 32.307.111.135a3.642 3.642 0 0 1-.112-.135l-.104-.14c.034.048.069.094.105.14Zm-256.097-2.366c.596.282 1.145.71 1.589 1.24l.019.023.018.023c.213.276.474.674.766 1.153-.462-.144-.903-.338-1.282-.614-.575-.418-.998-1.02-1.106-1.791l-.004-.034Zm310.8-79.315a65.44 65.44 0 0 1 1.907.028c.242.008.431.017.567.027.075.006.117.011.135.013h.002l.038.007.128.035c.327.113.848.449 1.419 1.111a7.169 7.169 0 0 1 1.294 2.226l.11.347.002.008.029.235c.023.199.045.471.069.817.046.691.091 1.633.132 2.796.083 2.325.153 5.493.209 9.223.114 7.457.174 17.134.179 26.747.006 9.613-.044 19.156-.149 26.346-.053 3.597-.118 6.597-.199 8.719a62.16 62.16 0 0 1-.127 2.431c-.244.037-.559.073-.958.108-1.25.109-3.151.185-5.898.229h-.002l-5.553.095c.025-.149.054-.322.084-.514.098-.624.227-1.494.38-2.569.308-2.152.72-5.151 1.2-8.715.962-7.13 2.198-16.532 3.419-25.96a5462.351 5462.351 0 0 0 3.329-26.132c.451-3.621.825-6.692 1.087-8.929.131-1.118.234-2.032.305-2.704.066-.622.116-1.141.116-1.382 0-1.095-.266-2.258-1.065-3.029a2.558 2.558 0 0 0-1.599-.722c-.591-.043-1.144.12-1.622.377l-.001-.001c-.289.15-.79.404-1.193.974-.357.505-.552 1.134-.708 1.846-.315 1.433-.632 4.032-1.216 8.893l.001.001c-.373 3.02-.618 4.855-.81 5.939-.165-.027-.34-.052-.525-.073-.848-.095-2.107-.161-3.957-.207-3.716-.093-10.01-.114-20.624-.114-6.858 0-13.113-.033-17.66-.093-2.275-.03-4.115-.066-5.388-.108-.234-.008-.447-.017-.638-.025a136.06 136.06 0 0 1-.006-1.785c.004-1.396.023-3.17.06-5.13l.043-2.014v-.003l.188-8.632 19.355-.243c11.455-.131 24.265-.349 28.466-.436 2.09-.043 4.099-.064 5.645-.058Zm-313.589 81.288.035-.101c.006-.016.015-.031.022-.047a1.298 1.298 0 0 0-.057.148Zm328.48-.381-.008-.033-.003-.027.011.06Zm-112.206-6.087a627.918 627.918 0 0 1 2.915 5.896 9.505 9.505 0 0 1-.963.106 7 7 0 0 1-1.702-.095c-.486-.095-1.164-.303-1.661-.828l.001-.001a5.352 5.352 0 0 1-.619-.711 2.365 2.365 0 0 1-.441-1.22 2.452 2.452 0 0 1 .288-1.252c.155-.303.365-.598.569-.869l-.001-.001c.273-.369.642-.597.89-.729.226-.12.471-.223.716-.311l.008.015Zm41.93 5.564.137.362a5.329 5.329 0 0 1-.138-.362l-.117-.386c.036.133.075.262.118.386Zm-148.848-1.485c-.104.278-.206.558-.307.839l-.295.849c.193-.57.394-1.133.602-1.689v.001Zm-60.482 1.58.19.08a2.239 2.239 0 0 1-.19-.079l-.184-.097c.059.035.121.067.184.096Zm174.093-5.002c.135.264.218.531.265.77.088.448.082.909.015 1.331a3.839 3.839 0 0 1-.431 1.264c-.218.388-.572.827-1.111 1.1v.001l-.005.002-.01.006v-.001a6.785 6.785 0 0 1-.375.173c.215-1.455.378-2.411.557-3.023.149-.512.411-1.19 1.074-1.609l.021-.014Zm-17.852 3.774-.145.86c.058-.333.109-.641.154-.924-.004.021-.006.042-.009.064Zm-211.663.7c.48-.13.997-.163 1.527-.024.155.041.301.095.439.158-.269 0-.549-.008-.836-.028-.341-.023-.716-.06-1.13-.106Zm216.731-6.51a1257.647 1257.647 0 0 0 1.845 3.64l-1.845-3.64Zm-162.19 6.272c.059.105.135.205.223.299l-.122-.145a1.268 1.268 0 0 1-.176-.316l.075.162Zm210.032-.039.029.184a4.783 4.783 0 0 1-.03-.184l-.055-.5c.017.197.036.363.056.5Zm-67.747-6.791c.675.069 1.372.336 2.061.74l-1.657 2.907c-.252.448-.504.89-.753 1.33-.055-.047-.11-.09-.161-.135l.037.034.123.102-.75 1.327c-.615-.499-1.148-.997-1.505-1.561a3.177 3.177 0 0 1-.505-1.855l.018-.27.002-.012.001-.012c.083-.708.356-1.451.978-1.984.636-.546 1.414-.681 2.111-.611Zm140.443 6.046.182.113a4.05 4.05 0 0 0-.182-.113Zm-97.65-1.435c-.268.371-.53.804-.798 1.284-.038.067-.075.137-.114.208a7.711 7.711 0 0 0-.674-.912c.138-.034.277-.066.416-.104l.015-.005.015-.003a5.678 5.678 0 0 0 1.14-.468Zm-181.741.229-.135 1.198c.051-.43.129-1.149.235-2.132l-.1.934Zm206.551-.099.04.869a63.393 63.393 0 0 1-.041-.869l-.033-1.06c.01.386.022.739.034 1.06Zm-261.395.827-.119.038c.041-.012.08-.025.118-.038l.107-.044c-.033.016-.069.03-.106.044Zm233.264-.017.008.008-.063-.051.055.043Zm-224.357-2.854c.493-.071 1.039-.043 1.605.017.134.015.275.031.423.05-.227.553-.557.979-.987 1.364l.001.001-.019.016a.034.034 0 0 0-.008.009l-.001-.001c-.362.332-.876.745-1.547.876-.726.141-1.33-.094-1.777-.374l.041-.098.003-.01c.148-.329.371-.78.762-1.152.44-.418.962-.621 1.504-.698Zm196.792 1.245a9.149 9.149 0 0 0-.001 0l.053-.119a1.853 1.853 0 0 0-.052.119Zm34.354.869a.838.838 0 0 1 .091.041l-.091-.04a6.4 6.4 0 0 0 0-.001Zm-13.223-.189a.241.241 0 0 1 .008-.025l.086-.249c-.032.08-.063.171-.094.274Zm11.199-1.306c-.352.545-.859.974-1.444 1.295.149-.207.3-.394.456-.56.279-.298.606-.558.988-.735Zm-225.603 1.191c.076.012.151.027.224.04-.074-.013-.149-.028-.225-.04a73.397 73.397 0 0 0 .001 0ZM444 310.801c.174.056.514.185.806.475.232.231.353.485.412.629.042.102.073.204.1.3a2.78 2.78 0 0 0-.623.386 2.676 2.676 0 0 0-.209.185 2.506 2.506 0 0 1-.158-.229c-.348-.565-.46-1.197-.463-1.786.045.012.09.025.135.04Zm-228.996 1.529.018.204a2.735 2.735 0 0 0-.02-.214l.002.01Zm228.745.01a.293.293 0 0 1-.001 0l-.015-.012.016.012Zm-116.648-.704c.099-.239.198-.467.298-.682l.393-.831c-.134.274-.264.552-.392.831-.1.215-.2.443-.299.682Zm226.921.574-.02.122.019-.123.061-.314a3.665 3.665 0 0 0-.06.315Zm-104.033-.353-.28.116c.103-.039.201-.081.295-.124l-.015.008Zm-238.381-2.813v.001c.821.163 1.507.31 2.063.462.543.148 1.067.327 1.507.595.487.295.884.706 1.117 1.272.047.114.084.229.114.342-.16.027-.32.043-.479.044-1.199.009-2.491-.666-3.687-1.538l-.4-.284c-.5-.364-.956-.728-1.338-1.103.354.064.722.132 1.103.209Zm227.78 2.486.05.067a.816.816 0 0 0-.05-.066l-.055-.06a.61.61 0 0 1 .055.059Zm-.445-.245c.09.022.168.047.234.078l.088.05a.814.814 0 0 0-.196-.092l-.126-.036Zm-.3-.051.157.022a3.473 3.473 0 0 0-.157-.022Zm5.693-2.857c.118.11.244.205.374.288a2.921 2.921 0 0 0-.455.586c-.275.47-.39.979-.39 1.481v.029a3.43 3.43 0 0 0-.49-.095 4.953 4.953 0 0 0-1.233.01l-.001-.001c-.08.009-.307.029-.483.06a2.31 2.31 0 0 0-.817.3 2.467 2.467 0 0 0-.416-.589l.002-.002c-.005-.006-.013-.01-.018-.016l-.018-.021-.002.002c-.378-.381-.845-.521-1.097-.582a4.133 4.133 0 0 0-.216-.044l.026-.019.001.001c.385-.315.739-.709.97-1.193.214.173.458.317.735.419.557.206 1.113.202 1.581.145v.001c.238-.028.67-.072 1.059-.231.323-.132.602-.332.824-.596.022.021.042.046.064.067Zm-233.023 2.138a51.867 51.867 0 0 1-.001 0l-.76-.148c.244.046.498.095.761.148Zm343.783-.168a1.39 1.39 0 0 0-.179.115l-.087.069a1.65 1.65 0 0 1 .174-.131l.092-.053Zm-116.757-.637c.238.008.49.03.737.073a2.816 2.816 0 0 1-1.79.652c-.457.006-.943-.081-1.445-.208l-.508-.139-.009-.003-.011-.004-.087-.029c.358-.083.727-.153 1.09-.206a11.47 11.47 0 0 1 2.023-.136Zm-4.707-.356c.385.234.807.427 1.244.584l.35.114a9.95 9.95 0 0 0-.912.252l-.174.059-.508-1.009Zm121.752.875-.098.032c.032-.012.065-.023.097-.032l.101-.022a1.112 1.112 0 0 0-.1.022Zm-334.456-2.105a30.1 30.1 0 0 0 .008.866l-.008-.866Zm345.982-3.25c.052.157.09.309.115.451.079.457.062.926-.017 1.354-.139.756-.569 1.853-1.583 2.383l-.008.004-.178.086c-.337.151-.717.26-1.114.339a51.488 51.488 0 0 1 1.349-2.582c.473-.828.933-1.527 1.419-2.018l.017-.017Zm-133.278 4.48c-.505-.308-.944-.687-1.254-1.168a2.75 2.75 0 0 1-.383-2.082l1.637 3.25Zm16.326-2.168-.012.015-.005.006-.005.005c-.56.626-1.119 1.155-1.736 1.5a3.379 3.379 0 0 1-1.808.445l-.266-.018-.003-.001-.235-.033a3.137 3.137 0 0 1-1.178-.44c.188-.187.396-.345.613-.479.783-.486 1.817-.736 2.934-.895l.001.001c.612-.089 1.181-.139 1.7-.106Zm-14.208 1.46.47.128a12.662 12.662 0 0 1-.47-.128l-.385-.127c.122.044.251.086.385.127Zm2.766-3.95c.717.443 1.333 1.023 1.634 1.787a2.576 2.576 0 0 1-.077 2.089 2.93 2.93 0 0 1-.632-.71c-.482-.753-.727-1.818-.908-3.048l-.017-.118Zm-.152 3.718-.044.039.06-.059-.016.02Zm6.433-5.129c.034.49.056 1.023.057 1.554l.011.872c.001.265-.002.504-.011.716-.017.392-.058.874-.238 1.312a2.197 2.197 0 0 1-.344.571 2.614 2.614 0 0 1-.755-1.739c-.057-1.126.511-2.277 1.28-3.286Zm-3.335 4.34-.039-.009-.094-.031c.043.016.087.029.133.04Zm1.269-.059-.136.029a2.204 2.204 0 0 0 .136-.029Zm-218.534-.716.007.489c-.002-.192-.005-.38-.011-.563l.004.074Zm216.643.387.073.079a1.099 1.099 0 0 1-.073-.078l-.069-.088c.023.031.046.06.069.087Zm7.256-.293-.164.139c.065-.052.13-.109.197-.17l-.033.031Zm127.342-.211a.909.909 0 0 0 .053.079l-.053-.078a2.374 2.374 0 0 1 0-.001Zm-142.004.038-.002-.108.002-.031a1.289 1.289 0 0 0 0 .139Zm15.719-.955c-.024.029-.046.061-.071.09l-.264.307-.043.046.043-.047c.121-.138.231-.271.335-.396Zm-200.711.33-.008-.015-.003-.009.011.024Zm-.128-.471.04.187c-.013-.056-.028-.119-.041-.187l-.08-.48c.027.183.054.343.081.48Zm188.616-.114a6.314 6.314 0 0 1-.001 0 55.44 55.44 0 0 0 .001 0Zm138.144-1.652c1.098-.894 2.462-1.203 3.858-1.089-.162.126-.33.254-.502.382l-.546.394c-1.261.886-2.45 1.526-3.508 1.665a3.302 3.302 0 0 1-.49.026c.266-.622.795-1.065 1.168-1.362l-.001-.001.012-.009.008-.007.001.001Zm-140.646 1.007a1.263 1.263 0 0 0-.221.215l-.117.145c.08-.106.154-.195.227-.266l.111-.094Zm146.867.123.263.138a5.399 5.399 0 0 0-.264-.138l-.376-.176c.126.055.252.114.377.176Zm-145.809-.099c.1.037.209.082.329.131a7.977 7.977 0 0 0-.359-.14l.03.009Zm129.722-.019.046.031a.182.182 0 0 0-.047-.031l-.076-.029c.03.009.056.019.077.029Zm-.304-.081.126.024a2.347 2.347 0 0 0-.126-.024Zm-317.062-2.873c.105.771.185 1.41.229 1.855l.081.755c-.027-.229-.055-.48-.082-.755a36.13 36.13 0 0 0-.091-.805l-.137-1.05Zm330.876 2.338a5.64 5.64 0 0 1 .354.034l-.354-.034Zm-138.772-.222.012.087-.013-.087-.044-.406c.012.131.027.267.045.406Zm-216.264-.174a.446.446 0 0 1-.001 0 4.5 4.5 0 0 0 .001 0Zm339.363-.663c.444-.005.86.003 1.223.024.317.017.625.046.886.09.128.022.281.054.432.102.061.019.24.076.442.203a2.703 2.703 0 0 1-1.16.207c-.649-.027-1.241-.269-1.747-.576l-.076-.05Zm10.491.483.114.032a1.065 1.065 0 0 1-.114-.032l-.108-.042c.035.016.071.029.108.042Zm-.542-.423.073.098a1.27 1.27 0 0 1-.14-.207v-.001c.021.039.043.075.067.11Zm-.266-.658.04.155a3.137 3.137 0 0 1-.04-.154 5.202 5.202 0 0 1-.044-.165v-.001c.013.053.028.108.044.165Zm-6.869-.636-.08.072a1.77 1.77 0 0 0 .079-.072l.074-.077a1.754 1.754 0 0 1-.073.077Zm.315-.432-.11.186a1.81 1.81 0 0 0 .109-.186l.089-.199a1.97 1.97 0 0 1-.088.199Zm6.511.01-.035.106a.77.77 0 0 1 .034-.106l.048-.102a.941.941 0 0 0-.047.102Zm-9.979-.564a8.2 8.2 0 0 0 .312.305l-.312-.305Zm10.41-1.79c-.212.551-.525 1.189-.991 1.652-.27.268-.595.508-.976.664.027-.169.072-.34.14-.513.281-.714.844-1.153 1.289-1.45l-.001-.001c.141-.097.333-.236.555-.4l-.016.048Zm-5.832-.713c.347.51.532 1.094.593 1.648a4.984 4.984 0 0 1-.337-.733 6.163 6.163 0 0 1-.256-.915Zm-231.438 1.612.178-.182.09-.089c-.089.09-.179.179-.268.271Zm225.519-.702.347.455a25.297 25.297 0 0 1-.348-.454l-.55-.778c.159.232.343.489.551.777Zm-225.748-.255-.647.663c.212-.222.427-.443.646-.663l.908-.884a53.3 53.3 0 0 0-.907.884Zm230.474.26a2.022 2.022 0 0 1 .106.196l-.106-.196Zm-319.114-3.218.481 3.093c-.147-.977-.311-2.029-.482-3.093l-.522-3.175c.174 1.032.352 2.11.523 3.175Zm318.758 2.802.082.075a1.786 1.786 0 0 0-.132-.113l.05.038Zm-228.802-1.112.379-.344.03-.027c-.13.116-.267.24-.409.371Zm227.436-.241a11.7 11.7 0 0 1-.202-.241l-.039-.048c.08.098.16.194.241.289Zm-227.027-.13Zm2.152-.977a.586.586 0 0 1-.037.057l-.019.022c.025-.033.045-.059.056-.079Zm-119.958-95.445c8.009.303 16.089.713 24.204 1.187 5.263 24.969 6.885 57.867 4.536 92.571-.115-.703-.229-1.403-.344-2.08v-.002c-4.535-26.602-14.088-57.39-28.396-91.676Zm352.476 92.955.061.103a1.917 1.917 0 0 0-.077-.126l.016.023Zm-229.793.025c-.006-.02-.014-.04-.019-.061l-.053-.217c.023.102.047.194.072.278Zm112.764-92.179c-.139 1.232-.343 2.337-.613 3.285l-.002.004c-1.97 6.982-5.035 12.137-8.417 14.679l.001.001-1.916 1.436h-10.471c-6.068 0-9.291-.005-11.826.46-2.62.482-4.505 1.467-7.863 3.179l-.001-.001c-5.458 2.758-9.6 5.668-13.948 9.812l-.001-.001c-5.881 5.581-9.039 10.387-11.398 17.199l1.416.489-1.417-.489-.001.004c-1.973 5.749-2.223 9.26-2.223 25.648v14.045l-11.424.23h-.002c-9.117.196-16.908.424-22.527.653a256.82 256.82 0 0 0-6.714.341c-.813.055-1.481.111-1.98.167l-.116.014a14.984 14.984 0 0 1-.113-.975c-.179-2.118-.235-5.916-.235-12.389v-9.762l19.354-.081h.003l20.893-.13 1.308-.008.169-1.296.127-.97c.033-.214.105-.616.107-.976.002-.42-.082-.995-.505-1.518-.393-.485-.928-.737-1.408-.889-.489-.154-1.083-.255-1.775-.328-2.72-.288-8.261-.274-19.231-.274h-18.879l.143-6.856v-.003c.261-13.954.764-25.547 1.487-34.604.413-5.169.895-9.479 1.438-12.916 27.799 1.312 54.102 1.448 77.275-1.312 11.104-1.322 21.489-3.311 31.285-5.868Zm-113.067 90.071a29.455 29.455 0 0 1-.048-.668l-.007-.144c.016.291.035.562.055.812Zm-95.969-1.821.258 1.442c-.124-.703-.253-1.41-.384-2.12l.126.678Zm193.737-35.925 17.682 35.247-17.683-35.247 7.911-13.95-7.91 13.95Zm-27.056 35.064-.098-.159c-.018-.03-.035-.062-.052-.093.047.085.097.169.15.252Zm-132.38-84.553c-.993 10.068-2.203 22.16-3.636 36.272a40011.804 40011.804 0 0 1-.001.001c1.433-14.112 2.643-26.204 3.636-36.273h.001Zm-54.837 81.876c.136.502.267 1.003.398 1.501-.137-.522-.274-1.046-.418-1.571l.02.07Zm190.775 1.246Zm.039-.008c-.004.002-.009.002-.014.003a.396.396 0 0 0 .068-.024l-.054.021Zm-.492-1.413a1.239 1.239 0 0 1 .984.067c.096.295.08.617-.025.869a1.24 1.24 0 0 1-.984-.068c.008.026.014.052.024.077l-.054-.166c-.08-.327-.027-.677.124-.917a.987.987 0 0 0-.069.138Zm110.693-19.696-2.65 20.55 2.649-20.55a2102.914 2102.914 0 0 0 .001 0Zm-217.348 18.913a.759.759 0 0 1 .226.202l.23.312a8.578 8.578 0 0 0-.23-.311.585.585 0 0 0-.093-.104l-.133-.099Zm-46.794-82.191c4.356.297 8.715.605 13.07.917a12589.52 12589.52 0 0 0-3.731 36.347l-2.87 28.466c-.565 5.62-1.093 10.896-1.577 15.721.04-9.312-.058-18.279-.343-24.677v-.002c-.829-18.19-2.358-37.177-4.549-56.772Zm38.629 80.742 2.838.36c-.827-.11-1.769-.228-2.838-.359l-3.101-.378c.97.119 2.019.246 3.101.377Zm61.628-15.857-20.849.087v11.256l.011 4.369a717.043 717.043 0 0 1-.012-4.369v-11.256l20.849-.087 20.892-.13-20.891.13Zm59.755-37.455a785.66 785.66 0 0 1 1.922 3.778l2.323 4.623.001.003 1.813 3.614c1.59 3.183 2.538 5.136 3.053 6.348.094.222.17.411.23.572-1.438.837-2.286 2.343-2.573 3.834-.346 1.798.044 3.908 1.508 5.393l.014.016.016.013.426.409-6.242 10.979-.003.006a526.043 526.043 0 0 1-4.849 8.449c-.288.489-.552.936-.789 1.332-.493-.94-1.121-2.151-1.855-3.582-1.85-3.602-4.372-8.574-7.124-14.047l-2.848-5.677c-2.539-5.082-4.182-8.443-5.204-10.673-.686-1.496-1.066-2.428-1.252-3.008a4.093 4.093 0 0 1-.077-.272c.216-.286.614-.748 1.218-1.368a59.12 59.12 0 0 1 2.892-2.732c1.94-1.727 4.106-3.487 5.77-4.646l.679-.458.008-.005c1.982-1.299 5.222-3.081 7.217-4.011.977-.434 1.888-.845 2.563-1.147.3.577.695 1.342 1.163 2.257ZM223.769 278.4a.768.768 0 0 0 0-.001l.13-.137.004-.003a1.627 1.627 0 0 0-.134.141Zm19.416-1.577.345 1.515c-.137-.605-.276-1.212-.417-1.82.023.102.049.203.072.305Zm244.396-3.194a2.545 2.545 0 0 0 .224.067l-.224-.067Zm1.603.009a.736.736 0 0 1-.138.055l-.146.032a.997.997 0 0 0 .284-.087Zm-227.096-5.348c.029.972.056 1.941.08 2.906l-.082-2.959.002.053Zm146.739-4.965 3.902 7.731a2605.408 2605.408 0 0 1-3.902-7.731Zm103.825 5.289.016.946c-.005-.408-.016-.847-.027-1.304l.011.358Zm-247.183-4.641c.024.768.045 1.561.065 2.376l-.057-2.13a18.97 18.97 0 0 0-.008-.246Zm4.895 4.214.217-2.158 2.534-25.133c-.971 9.614-1.9 18.828-2.751 27.291Zm113.253-1.308-.054.357.054-.361v.004Zm-14.115-1.9a1127.707 1127.707 0 0 1-.001 0l-7.267-.002 7.268.002Zm-104.304-7.527c.048.959.094 1.915.137 2.869a253.193 253.193 0 0 1-.001.001c-.043-.954-.089-1.91-.136-2.869v-.001Zm267.912-16.025c-.31 2.937-1.262 10.643-2.459 20.082 1.197-9.44 2.15-17.147 2.459-20.083v.001Zm-194.379 8.212c-.073 3.017-.138 6.23-.198 9.662l.093-4.987.105-4.675Zm188.763 6.707a.212.212 0 0 1-.056.032.26.26 0 0 0 .099-.077l-.043.045Zm-.396-.11a1.019 1.019 0 0 0 0 .001.522.522 0 0 0 0-.001Zm-93.064-.641a.634.634 0 0 0 0 .001v-.001Zm.317-1.244a1.225 1.225 0 0 1 .778.276c.08.066.138.133.179.189-.025.051-.052.107-.083.165a2.758 2.758 0 0 1-.43.588 1.273 1.273 0 0 1-.697-.649 1.331 1.331 0 0 1-.111-.347.71.71 0 0 1 .111-.192l.691.368.436.232-.436-.239-.673-.369c.067-.013.146-.022.235-.022Zm41.961.907h-.005l-.006-.003.011.003Zm-42.397-.277a1.945 1.945 0 0 0 0-.027v.027Zm0-.027.002-.075.004-.032a1.21 1.21 0 0 0-.006.107Zm.072-.381a.108.108 0 0 0-.008.019l.008-.022v.003Zm.134-.217.025-.028.008-.007c-.012.011-.023.024-.033.035Zm-40.373-2.199a73.024 73.024 0 0 0-.001 0l.273-.719c-.094.239-.185.48-.272.719Zm43.929-2.2c.094.158.153.241.17.243v.001c-.008-.001-.027-.021-.055-.061l-.115-.183Zm-202.881-3.4 1.045 3.316c-.342-1.1-.691-2.206-1.046-3.316l-1.083-3.346c.368 1.12.73 2.235 1.084 3.346ZM438.547 227.8c3.552 0 6.749.043 9.04.113.495.015.945.034 1.345.051-.331.598-.728 1.31-1.175 2.105a1193.688 1193.688 0 0 1-4.561 8.023 1199.08 1199.08 0 0 1-5.293 9.143c-.198-.373-.417-.789-.653-1.242a607.727 607.727 0 0 1-1.958-3.791l-2.356-4.629-4.897-9.773h10.508Zm-38.216 18.193a4.578 4.578 0 0 1-.046-.102l-.066-.153.112.255Zm-6.905-1.101.092-.154.315-.502a29.74 29.74 0 0 0-.407.656Zm5.872-2.339a.494.494 0 0 0-.001 0l.086-.143c-.032.05-.06.098-.085.143Zm32.3-4.302a1110.722 1110.722 0 0 0-.001 0L425.61 226.3l5.988 11.951Zm-171.054-.362.213 3.076c-.092-1.376-.19-2.753-.291-4.131.026.352.053.703.078 1.055Zm3.31-1.771Zm269.324 3.463.029.289a4.076 4.076 0 0 0-.032-.305l.003.016Zm-2.961-.423-.113.359c.037-.135.074-.253.112-.359l.059-.147c-.02.046-.039.095-.058.147Zm.245-.492-.065.1c.021-.036.043-.069.064-.1l.069-.088a1.274 1.274 0 0 0-.068.088Zm.657-.507-.065.035c.022-.011.042-.024.065-.036a1.989 1.989 0 0 1 0 .001Zm-131.327-1.162c.104-.104.208-.211.315-.315l.064-.063c-.128.126-.254.253-.379.378Zm-136.047-2.321.054.731c-.113-1.486-.23-2.977-.352-4.472l.298 3.741Zm275.335-1.697.234.237a6.061 6.061 0 0 0-.354-.345c.04.036.081.071.12.108Zm-309.92-3.004c.364 1.01.722 2.016 1.076 3.019l-1.076-3.019Zm176.05 2.187c.169-.132.337-.263.506-.392l.102-.077c-.203.155-.406.311-.608.469Zm68.434-.261-.016.022c.006-.009.01-.017.016-.023l.054-.047.011-.008a.729.729 0 0 0-.065.056Zm62.431-.797.281.118a5.262 5.262 0 0 0-.282-.118l-.292-.101c.1.031.198.064.293.101Zm-36.367-.029a.389.389 0 0 1-.038-.042l-.002-.004a.455.455 0 0 0 .04.046Zm19.048-2.43c.092.184.177.371.256.561l.655 1.608-.655-1.607a7.126 7.126 0 0 0-.124-.283l-.132-.279Zm-19.097 1.379.004-.011a2.017 2.017 0 0 1-.004.011Zm-270.658-.494.159.445c-.319-.886-.642-1.775-.968-2.666.271.742.543 1.482.809 2.221Zm275.586-1.451c3.482-1.028 6.658-.402 8.4 1.155-1.133.05-2.615.08-4.377.08-1.96 0-3.857.033-5.339.082-.449.015-.863.033-1.231.051a8.08 8.08 0 0 1 2.547-1.368Zm-88.604 1.333.705-.362.314-.157a52.87 52.87 0 0 0-1.019.519Zm1.978-.982a39.792 39.792 0 0 0-.001 0c.843-.375 1.627-.727 2.264-1.012l.836-.372c-.704.311-1.835.822-3.099 1.384Zm100.504-.33.15.27a10.704 10.704 0 0 0-.214-.376c.021.036.044.07.064.106Zm-4.846-.293.239.194a7.457 7.457 0 0 0-.239-.193l-.249-.185c.084.06.167.121.249.184Zm-250.823-4.409.334 3.778a744.28 744.28 0 0 0-.335-3.778l-.351-3.794c.12 1.268.238 2.533.352 3.794Zm242.892 2.881-.071.014.085-.017-.014.003Zm1.887-.196c-.247.008-.497.023-.747.045l-.378.039c.252-.03.503-.052.752-.067l.373-.017Zm8.955-.397.225.215c-.1-.098-.204-.194-.308-.289l.083.074Zm-16.88-.825a6.696 6.696 0 0 0 0-.001l.269-.172a9.616 9.616 0 0 0-.269.173Zm-32.106-1.511.145.056a2.509 2.509 0 0 0-.155-.06l.01.004Zm43.951-.315.135.034-.135-.033a11.538 11.538 0 0 0 0-.001Zm-58.684-3.023-.233.291-2.055 2.52 2.054-2.52c.106-.13.211-.264.317-.401l-.083.11Zm-201.186.342Zm248.932-1.625c.107.052.226.091.36.134.051.017.1.031.149.044l.142.033a2.367 2.367 0 0 1-.291-.076l-.193-.064a1.821 1.821 0 0 1-.167-.071Zm-50.056-1.467a21.205 21.205 0 0 1 0-.001v.001Zm-192.126-3.845.398 3.89a973.905 973.905 0 0 0-.398-3.89l-.42-3.938c.143 1.32.284 2.633.42 3.938Zm82.14 2.52-.129 1.273c.042-.429.085-.854.128-1.273l.134-1.248c-.045.412-.089.827-.133 1.248Zm-89.655-1.202.024.171c-.081-.558-.163-1.116-.247-1.672l.223 1.501Zm-30.054-6.593 1.459 3.635a587.32 587.32 0 0 0-1.46-3.635l-1.496-3.663a645.844 645.844 0 0 1 1.497 3.663Zm326.779-41.173c-.946-1.672-3.07-1.884-4.517-.948l.001.001c-.233.15-.393.331-.475.43-.1.122-.189.253-.267.375a10.77 10.77 0 0 0-.493.883c-.341.673-.751 1.58-1.207 2.651-.914 2.151-2.051 5.053-3.249 8.277-2.395 6.446-5.063 14.252-6.738 20.036l.001.001c-1.016 3.461-1.609 5.729-1.763 7.245-.077.768-.062 1.507.172 2.171a3.005 3.005 0 0 0 1.261 1.563l.011.007.01.006.237.133c.571.285 1.264.398 1.984.129.727-.273 1.228-.847 1.577-1.383.698-1.072 1.282-2.775 1.85-4.947l.002-.01.003-.009c1.331-5.372 5.884-18.822 8.919-26.535l.585-1.463.003-.007c1.002-2.492 1.661-4.224 2.022-5.423.18-.595.308-1.13.354-1.597.043-.44.033-1.025-.274-1.571l.001-.001-.007-.009-.002-.006-.001.001ZM350.733 64.476l1.53 1.607.01.01.011.011c1.937 2.12 3.554 5.253 4.627 8.475 1.072 3.223 1.662 6.719 1.398 9.62l-.069.666c-.179 1.533-.492 2.894-.922 3.946-.243.595-.557 1.171-.967 1.623-.408.45-1.046.91-1.896.91l-.205-.003c-.486-.02-1.026-.115-1.525-.402-.619-.357-1.006-.907-1.213-1.528-.191-.574-.229-1.21-.204-1.844.026-.646.122-1.393.27-2.238.715-4.373-.624-10.036-3.224-13.668-.59-.774-.797-.974-.915-1.052 3.247 4.722 4.034 11.014 1.684 15.968-.58 1.238-.996 2.098-1.653 2.93-.64.813-1.477 1.559-2.787 2.69l-.506.438c.373.37 1.084.906 1.766 1.33l.077.048c.469-.607 1.024-1.11 1.65-1.433.506-.26 1.106-.425 1.746-.364a2.777 2.777 0 0 1 1.542.657l.183.167a1.578 1.578 0 0 1 .371.575c.037.093.066.185.088.259.045.152.091.339.138.538.094.405.207.953.331 1.588.248 1.276.549 2.961.843 4.692.576 3.402 1.157 7.178 1.206 8.295.065 1.506-1.16 2.311-2.045 2.661-.973.386-2.246.556-3.651.556-.534 0-.945.01-1.262.025.111 1.926.502 6.506.975 11.546.488 5.191 1.05 10.747 1.444 14.119l.157 1.303c1.27 10.019 2.431 15.211 3.794 18.045l.241.471c1.275 2.375 3.571 5.04 6.291 7.389 2.718 2.346 5.725 4.261 8.332 5.228l.516.181c2.895.952 5.416 1.323 7.896 1.135 2.484-.189 5.02-.944 7.937-2.363 4.279-2.109 9.264-6.825 13.793-12.85 4.507-5.997 8.444-13.132 10.702-19.906l-.001-.001c1.192-3.62 1.895-6.169 2.308-8.846.414-2.683.545-5.548.545-9.805 0-8.358-.555-11.806-2.602-17l-.233-.601a13.46 13.46 0 0 1-.502-1.606c-.145-.624-.23-1.314-.075-1.97a2.477 2.477 0 0 1 1.341-1.69c.589-.291 1.252-.359 1.841-.36a34.99 34.99 0 0 0-5.301-4.667l-.833-.601c-.772-.571-1.365-1.06-1.764-1.53a3.162 3.162 0 0 1-.667-1.212 3.072 3.072 0 0 1-.065-1.229h-.002c.076-.636.292-1.349.841-1.896.438-.438.969-.65 1.497-.717-1.267-.567-1.595-1.908-1.555-2.796.043-.96.511-2.17 1.661-2.775l-.001-.001.012-.005.007-.005h.001c.929-.488 1.965-.488 2.919-.275.962.214 1.978.671 3.005 1.276 2.058 1.212 4.416 3.17 6.876 5.625 4.934 4.922 10.493 12.053 15.18 19.88v-.001c4.395 7.333 12.435 23.599 19.218 38.202 3.397 7.312 6.492 14.238 8.673 19.454 1.089 2.604 1.959 4.803 2.524 6.419.281.802.499 1.496.629 2.039.065.267.119.544.141.802.011.128.017.291-.001.467a1.784 1.784 0 0 1-.217.696h.001c-.005.01-.013.019-.018.029l-.013.024-.002-.001a2.19 2.19 0 0 1-.447.518c-.14.12-.292.227-.435.319a9.36 9.36 0 0 1-.999.54c-.552.26-1.212.529-1.909.773l-.707.235c-.771.262-1.487.501-2.048.688.08.288.173.616.279.969l.003.008c1.829 6.209 2.897 12.765 3.163 19.749v.008c.061 1.854.105 3.264.112 4.418a216.818 216.818 0 0 1-6.635 1.843c.274-2.426.295-5.351.049-8.568-.369-4.822-1.323-10.185-2.802-15.302l-.302-1.098a4.763 4.763 0 0 0-.165-.516c-.278-.055-.838-.068-2.04.025-1.21.094-2.842.27-5.179.49l-.743.063c-7.822.6-27.082.283-35.989-.585l-.855-.089-.01-.001-2.389-.291c-.747-.094-1.434-.185-2.025-.268a55.442 55.442 0 0 1-1.477-.222 11.302 11.302 0 0 1-.504-.095c-.051-.011-.215-.044-.39-.108l-.177-.076-.142-.07-.124-.099c-.478-.38-.686-.935-.777-1.227a4.146 4.146 0 0 1-.183-1.207c0-.494.024-1.283.476-1.966.515-.778 1.328-1.072 2.07-1.188.728-.115 1.655-.103 2.778-.029 1.148.076 2.616.226 4.472.432v.001c4.944.534 13.453.805 21.601.805 8.181 0 15.808-.276 19.035-.796l.013-.002a95.046 95.046 0 0 0 6.282-1.18 42.707 42.707 0 0 0 1.743-.429 59.46 59.46 0 0 0-.345-.879 266.004 266.004 0 0 0-2.489-5.948 918.446 918.446 0 0 0-5.853-13.292l-2.269-5.024-1.101-2.402c-5.486-11.862-13.254-27.193-17.058-33.659l-.379-.637-.001-.001-.704-1.154a110.1 110.1 0 0 0-3.459-5.253 29.697 29.697 0 0 1 1.789 5.051l.001.004c.504 2.027.691 4.686.612 7.321-.079 2.642-.428 5.382-1.063 7.58-.667 2.353-1.865 5.263-3.13 7.817-1.237 2.498-2.653 4.891-3.81 6.042l-.012.01-.162.163c-.75.784-1.41 2.013-2.213 4.448l-.003.012-.281.79c-1.529 4.16-4.94 11.316-7.199 15.06l-.002.004-.015.024h8.436c4.641 0 7.496.022 9.295.122 1.654.093 2.777.254 3.597.825v-.001l.029.02.028.02v.001c.683.464 1.461 1.198 1.534 2.299.076 1.134-.639 1.979-1.26 2.519l-.001-.001c-.41.368-.892.583-1.472.72-.558.131-1.284.208-2.244.261-1.935.106-5.174.127-10.73.127h-11.988l-2.692 3.124-.722.833c-7.449 8.47-14.683 12.458-24.038 12.903h-.009l-1.394.067c-1.232.07-2.017.156-2.692.306-.648.144-1.226.356-2.05.733l-.916.438c-10.538 5.241-18.246 13.811-21.033 23.072-.478 1.597-.925 3.703-1.338 6.311-1.669-.079-3.344-.161-5.024-.248l-1.505-.08c1.681-10.799 5.351-18.19 12.544-25.299l.006-.005.006-.006c1.688-1.634 4.309-3.734 6.74-5.498a62.055 62.055 0 0 1 3.441-2.342c.221-.138.442-.27.658-.397l-.497-.271-.003-.002-.87-.484c-4.3-2.461-7.975-5.609-11.163-9.579l-.622-.778c-1.39-1.775-2.368-3.315-3.14-5.231-.865-2.147-1.444-4.702-2.143-8.481l-.181-.991c-.908-5.159-1.921-13.3-2.695-20.895-.821-8.057-1.394-15.7-1.257-18.532v-.001l.131-2.608.069-1.367 1.368-.057 3.146-.13h.001a21.63 21.63 0 0 0 1.584-.114l-.03-.222c-.051-.355-.112-.762-.179-1.199l-.216-1.379-.002-.007-.001-.008a52.174 52.174 0 0 0-.296-1.841l-.05-.254c-.951-.01-1.91-.351-2.811-.838-1.091-.59-2.262-1.48-3.491-2.61l-1.581-1.436h-3.4c-1.793 0-3.012-.028-4.117-.253-1.138-.231-2.084-.657-3.36-1.29l-2.412-1.181-10.589 1.706-3.107.507c-2.772.46-4.579.79-5.721 1.05-.147.033-.279.066-.397.095.477 1.605 1.084 4.072 1.594 6.336.344 1.526.655 3.014.868 4.169.106.574.192 1.084.243 1.482.026.197.046.39.055.561.004.084.007.186.002.291a1.865 1.865 0 0 1-.08.463h.001a.195.195 0 0 1-.008.022l-.003.012h-.001c-.18.546-.561.916-.845 1.142a6.244 6.244 0 0 1-1.097.666c-.81.399-1.939.827-3.371 1.309l-.007.003-.008.002a55.475 55.475 0 0 0-2.848 1.004l-.018.008.242.969c.345 1.372.845 3.345 1.462 5.773a6579.079 6579.079 0 0 0 4.817 18.823l.001.003c2.821 11.065 4.553 17.727 5.677 21.696.564 1.991.965 3.266 1.264 4.069.15.402.261.647.337.789l.023.04c.731.527 1.928 1.013 3.697 1.362 1.83.361 4.152.553 6.954.553 6.141 0 10.045-.701 17.583-3.185l.001.001a52.933 52.933 0 0 1 3.902-1.176 19.468 19.468 0 0 1 1.428-.314c.194-.033.394-.061.577-.073.099-.007.476-.037.854.104l.021.008.02.009c1.067.434 1.629 1.414 1.81 2.267.178.844.069 1.98-.749 2.793l-.115.107c-.28.241-.63.431-.897.566-.358.182-.797.375-1.284.574-.979.398-2.235.849-3.613 1.303-2.757.908-6.085 1.857-8.812 2.457l-.012.003-.589.119c-2.983.579-6.577.893-9.922.929-2.296.025-4.554-.081-6.456-.344a3.53 3.53 0 0 0-.765-.604c-.513-.286-1.045-.354-1.58-.308a5.961 5.961 0 0 0-.935.173c-2.526-.796-4.912-1.904-6.334-3.029h-.001c-.271-.211-.414-.474-.44-.52a3.207 3.207 0 0 1-.146-.296 9.94 9.94 0 0 1-.247-.641 49.773 49.773 0 0 1-.633-1.979 282.226 282.226 0 0 1-1.891-6.638c-1.491-5.428-3.378-12.595-5.212-19.762-1.834-7.167-3.618-14.344-4.907-19.788a266.424 266.424 0 0 1-1.511-6.673 44.936 44.936 0 0 1-.38-2.006 8.638 8.638 0 0 1-.083-.676 2.83 2.83 0 0 1-.005-.352 1.634 1.634 0 0 1 .248-.795l-.003-.002.015-.02.01-.017.002.002a2.19 2.19 0 0 1 .468-.498c.136-.109.287-.21.434-.3.296-.183.663-.377 1.065-.57.8-.383 1.83-.802 2.922-1.166l-.001-.001c1.018-.366 1.967-.719 2.679-.996.091-.035.177-.071.259-.103-.03-.173-.064-.368-.106-.582a60.219 60.219 0 0 0-.617-2.779l-.275-1.096-.001-.007-.445-1.735c-.286-1.095-.485-1.805-.642-2.266l-.141.024c-.298.042-.647.077-1.016.106a33.05 33.05 0 0 1-2.465.092h-.025c-5.491-.094-10.502-3.04-13.421-7.898l-.277-.475-.002-.005-.419-.78c-.382-.75-.657-1.435-.819-2.293-.201-1.062-.218-2.344-.218-4.303 0-1.845.042-3.117.21-4.166.178-1.105.489-1.92.943-2.87l.005-.013.007-.014c1.554-3.089 4.786-6.165 7.91-7.524h.001c1.305-.58 2.942-1.291 3.689-1.662l.011-.006.01-.005c.808-.385 1.849-.574 3.302-.695 1.484-.125 3.575-.19 6.589-.234h.005l7.867-.087.743-.007.457.587 1.049 1.346.011.014.01.014c1.429 1.925 2.907 4.809 3.32 6.789l.001-.001c.127.581.208 1.235.025 1.905-.191.7-.609 1.201-1.039 1.6l-.023.022a6.008 6.008 0 0 1-.703.557 2.369 2.369 0 0 1-1.091.392 2.317 2.317 0 0 1-1.148-.21 5.65 5.65 0 0 1-.741-.422h-.001a3.268 3.268 0 0 1-.482-.384c.344 1.264.538 2.644.603 4.184v.001c.066 1.507.073 2.617-.08 3.664-.156 1.07-.47 2.004-.947 3.178l-.001.002-.12.308.125-.02c1.226-.194 2.858-.465 4.599-.768 1.753-.305 3.376-.578 4.578-.774l.252-.04-.187-.38-.006-.013-.183-.38c-.411-.873-.7-1.648-.874-2.595-.192-1.04-.233-2.227-.233-3.9 0-3.235.175-4.608 1.116-6.485l-.001-.001.612-1.241-.916-1.609-.288-.518c-.646-1.206-1.096-2.38-1.08-3.407.009-.654.21-1.356.768-1.906.521-.513 1.184-.72 1.787-.79l-.001-.002.042-.003a.03.03 0 0 1 .004-.001h.001c.736-.092 1.501-.01 2.248.553.601.453 1.103 1.164 1.611 1.944l.437.66.675-.444c1.769-1.194 3.307-1.93 5.659-2.337 2.256-.389 5.26-.472 9.936-.472h9.123l.443.467ZM248.878 202.935a261.74 261.74 0 0 1 1.047 5.839l-.252-1.471c-.17-.979-.344-1.952-.523-2.92l-.272-1.448Zm284.202 4.445-.104.182c.046-.078.091-.159.136-.246l-.032.064Zm-16.276-1.084c-.05-.047-.1-.097-.148-.151l-.005-.007c.05.057.101.109.153.158Zm2.391-.492-.082.109c.032-.04.06-.081.088-.12-.003.003-.004.007-.006.011Zm-203.951-32.131h-.001c.768.238 1.689.423 2.712.564l.169.175v.001c.554.559 1.024 1.304 1.084 2.171.07.991-.42 1.855-1.257 2.364v-.001c-.201.124-.47.241-.654.319-.255.108-.579.238-.944.378-.729.278-1.655.611-2.592.921l-.917.325c-9.355 3.475-15.227 10.784-17.008 21.401a61.836 61.836 0 0 0-.447 3.563l-6.472-.471c.442-4.05.981-7.013 1.647-9.125l-.001-.001c3.286-10.619 10.804-18.38 21.11-21.796l.001.001a78.49 78.49 0 0 1 2.335-.776c.23-.071.453-.133.666-.188.189.06.379.119.569.175Zm26.926 31.131c-.031.137-.06.276-.09.415.039-.18.078-.358.119-.535l-.029.12Zm173.907.255.05.16a2.252 2.252 0 0 1-.104-.407c.018.096.036.179.054.247Zm-236.124-38.952c1.276-1.466 3.84-1.553 4.952.382l.021.036.019.037c.122.244.15.471.155.505.012.083.017.16.02.214.005.113.006.238.004.362-.005.252-.02.592-.044 1.007-.049.837-.139 2.046-.268 3.621-.258 3.152-.679 7.808-1.261 13.961a4769.373 4769.373 0 0 1-1.808 18.63l-1.495-.108.249-2.525-.25 2.525c-1.631-.118-3.262-.239-4.893-.356.688-6.598 1.302-12.421 1.837-17.391.686-6.371 1.239-11.344 1.643-14.751.203-1.702.369-3.022.496-3.932.063-.452.119-.818.167-1.085.023-.13.048-.259.075-.371.013-.053.033-.13.061-.212.003-.008.084-.271.293-.518l-.001-.001.018-.019.009-.012.001.001Zm254.415 37.703Zm.161-.591c-.053.203-.108.399-.161.591.053-.191.107-.388.16-.59l.312-1.196-.311 1.195ZM239.954 85.072c.91.098 1.589.675 2.061 1.197l.005.006.006.006c.175.198.282.413.334.52.065.137.124.288.179.435.109.297.228.672.352 1.104.251.868.554 2.054.897 3.493.687 2.884 1.552 6.855 2.512 11.5 1.921 9.293 4.229 21.324 6.264 32.831v.003c4.031 23.015 7.285 45.54 9.72 67.314-2.188-.148-4.376-.294-6.562-.436-3.931-34.003-10.069-72.104-16.81-103.416l-.78-3.63c-.682-3.2-1.079-5.171-1.251-6.424-.111-.817-.156-1.512-.039-2.104.146-.736.51-1.17.818-1.477.53-.527 1.303-1.028 2.294-.922Zm4.511 108.102c1.21-.473 2.394-.148 3.247.691.766.753 1.228 1.862 1.477 3.05v.001c.409 1.907.8 3.836 1.172 5.787-2.209-.138-4.417-.271-6.621-.399-.149-.708-.3-1.409-.455-2.104l-.287-1.343c-.252-1.254-.391-2.245-.354-3.011.027-.549.148-1.135.502-1.657.366-.537.862-.833 1.311-1.011l.008-.004Zm50.085 7.806a30.546 30.546 0 0 0-.278 1.613l.085-.547c.06-.358.124-.713.193-1.065v-.001Zm48.863-.639a43.52 43.52 0 0 0-.552 1.779l.268-.897c.092-.297.186-.59.284-.881v-.001Zm172.123-.028.127 1.472c-.043-.459-.086-.952-.128-1.472l-.127-1.633c.042.567.085 1.114.128 1.633Zm-13.774 1.154c-.007.007-.014.008-.021.009.013-.001.029-.014.045-.04l-.024.031Zm-245.698-8.151c.342 2.739.671 5.459.986 8.155l-.483-4.062c-.164-1.359-.332-2.724-.503-4.094v.001Zm245.569 7.848-.097-.505a21.098 21.098 0 0 0 .097.505Zm-307.585-49.586c1.126-.065 2.405.429 3.169 1.569l.007.01.006.01c.375.578 1.273 2.316 2.418 4.607a716.746 716.746 0 0 1 4.226 8.638c3.143 6.522 6.658 13.991 8.765 18.727l1.685 3.806a719.764 719.764 0 0 1 5.212 12.172c-2.374-.09-4.741-.17-7.101-.24-4.964-11.808-10.312-23.534-15.861-34.696l-1.959-3.918a108.75 108.75 0 0 1-2.078-4.443 36.242 36.242 0 0 1-.867-2.136 9.606 9.606 0 0 1-.249-.789 3.653 3.653 0 0 1-.078-.386 2.055 2.055 0 0 1-.004-.545l-.003-.001.006-.027v-.009l.001.001c.225-1.588 1.592-2.285 2.705-2.35Zm100.843 47.845c-.041.17-.081.341-.12.514l.121-.514c.041-.171.084-.34.127-.509l-.128.509Zm-47.359-2.923c.071.224.134.466.188.723.142.659.281 1.321.418 1.986l-.417-1.986a7.507 7.507 0 0 0-.189-.723Zm253.716 2.414a214.13 214.13 0 0 1-.321-2.129v-.001c.115.787.223 1.505.321 2.13ZM291.997 196.7a20.883 20.883 0 0 0 0 .001c.098-.318.2-.633.306-.945v-.001a34.77 34.77 0 0 0-.306.945Zm53.076-.532-.11.238.185-.394-.075.156Zm-48.978-.665-.053.143c.076-.205.154-.408.234-.609l-.181.466Zm238.207-3.545-.809 2.502c.26-.818.53-1.654.808-2.502l.859-2.573c-.293.865-.579 1.725-.858 2.573Zm-236.112-.862a26.94 26.94 0 0 0-.695 1.263l.34-.637c.116-.211.234-.419.355-.625v-.001Zm216.861 1.369v.016c-.024-.654-.045-1.314-.062-1.988l.062 1.972Zm-12.415-9.255a498.437 498.437 0 0 1-.903 8.495l-.028-.2c-.32-2.403-.661-4.826-1.021-7.266.653-.34 1.304-.683 1.952-1.029Zm-154.504 7.636c-.167.242-.332.486-.493.731l.494-.731c.168-.242.339-.483.513-.723l-.514.723Zm-49.188-.962c-.087.131-.172.265-.257.398l.258-.398c.087-.132.174-.264.263-.394l-.264.394Zm51.36-1.89c-.107.128-.211.258-.316.387.136-.168.273-.335.413-.502l-.097.115Zm-49.681-.382c-.1.121-.198.242-.295.365l.296-.365c.099-.12.199-.239.3-.357l-.301.357ZM459.332 52.428c.563-1.085 1.627-1.872 2.979-1.66 1.165.184 2.072 1.056 2.683 2.034l.006.01c.631 1.028 1.84 3.845 3.301 7.534 1.488 3.755 3.297 8.572 5.137 13.733l1.178 3.319c11.322 32.318 20.824 71.321 26.068 106.841a229.732 229.732 0 0 1-6.177 3.106c-3.819-26.053-9.442-52.342-16.709-78.012l-.919-3.215-.905-3.088c-4.515-15.172-10.965-33.693-15.249-43.863l-.434-1.022-.006-.012-.414-1c-.379-.933-.649-1.671-.789-2.27a3.958 3.958 0 0 1-.112-1.296 2.89 2.89 0 0 1 .363-1.138l-.001-.001Zm40.703 23.522c.738-.255 1.837-.39 2.773.075l.037.018.036.02c.641.364 1.024.981 1.288 1.555.278.602.531 1.395.789 2.395.52 2.009 1.13 5.14 1.981 9.91l.491 2.825c2.36 13.943 3.265 25.448 3.553 43.959v.001c.221 14.54-.233 28.701-1.373 42.635a246.93 246.93 0 0 1-6.974 3.867c1.591-16.223 2.138-30.536 1.851-46.885l-.085-3.71c-.487-18.223-1.892-31.688-4.781-46.13h.001c-.416-2.066-.8-3.992-1.08-5.43-.139-.719-.253-1.32-.334-1.757a40.59 40.59 0 0 1-.125-.736c-.003-.023-.021-.15-.021-.282 0-.772.422-1.329.776-1.648a3.513 3.513 0 0 1 1.197-.682Zm-42.464 102.79-.029-.118-.088-.327.117.445Zm-89.437-.373c-.049.025-.097.051-.146.075l.147-.075.52-.248c-.165.079-.34.16-.521.248Zm-59.55-1.069a29.34 29.34 0 0 0 .867-.389l-.867.389ZM507.775 19.02a3.858 3.858 0 0 1 1.357.025c.424.09 1.098.335 1.505 1.01.127.211.201.437.238.555.049.155.096.331.14.517.089.374.186.858.291 1.43.211 1.147.462 2.716.743 4.61.563 3.792 1.25 8.934 1.972 14.71 1.444 11.554 3.03 25.683 4.037 36.698l.471 5.204c2.248 25.647 2.898 45.8 2.157 65.393v.004l-.139 3.79a890.687 890.687 0 0 0-.406 19.971 271.2 271.2 0 0 1-6.621 4.104c.069-3.233.174-7.004.321-11.548.699-23.624.698-44.516.002-56.923l-.278-4.549c-1.372-21.423-3.78-45.429-6.756-67.185l-.645-4.626-.001-.002-.319-2.323a145.78 145.78 0 0 1-.635-5.385 32.821 32.821 0 0 1-.148-2.263 7.751 7.751 0 0 1 .018-.795c.014-.173.05-.548.224-.895l.008-.016.008-.014c.303-.57.804-.908 1.181-1.099a4.27 4.27 0 0 1 1.275-.398ZM375.783 176.672l-.029.001.03-.001c.285-.014.568-.03.849-.051l-.85.051Zm81.121-.348.1.349c-.033-.116-.065-.233-.099-.349a44.327 44.327 0 0 1-.268-.917l.267.917Zm-38.789-.772.088.003c-.902-.035-1.785-.071-2.644-.112l2.556.109Zm31.17-.561c-1.043.088-2.383.223-4.115.39l2.241-.217c.713-.07 1.333-.128 1.874-.173Zm-47.979-.914c.123.021.261.042.412.066a23.922 23.922 0 0 1-.465-.077l.053.011Zm55.029-.142c-.005.002-.009.009-.011.019l.012-.019.019-.009c-.01.004-.017.006-.02.009Zm-78.906-.839c-.17.017-.34.033-.51.046l.511-.046c.17-.018.34-.038.51-.061l-.511.061Zm-58.514-.249.05.005a29.198 29.198 0 0 1-.582-.069l.532.064Zm60.565-.081.518-.12c.035-.008.07-.019.105-.028-.208.052-.416.103-.623.148Zm80.841-.182.557-.204.05-.021c-.197.076-.4.152-.607.225Zm-91.881-.648c.112.037.225.072.337.107l-.336-.107c-.081-.027-.162-.057-.243-.085.081.028.161.058.242.085Zm94.923-.989a.277.277 0 0 1-.034.119.538.538 0 0 1 .001 0 .277.277 0 0 0 .033-.118v-.001Zm-97.809-.247.119.06a27.382 27.382 0 0 1-.712-.377l.593.317Zm97.472-1.338c.097.314.175.589.231.823l-.1-.384a21.898 21.898 0 0 0-.131-.439Zm-139.87.218 1.052.009-1.052-.01c-.26-.005-.517-.013-.769-.021.252.008.509.017.769.022Zm135.854-.283.03-.017.003-.003c-.009.007-.021.013-.033.02Zm-124.152-.829a46.13 46.13 0 0 1-2.115.436l1.046-.202a49.782 49.782 0 0 0 2.171-.5l-1.102.266Zm-51.296.389Zm28.759-1.829c.078.122.15.204.218.257a5.5 5.5 0 0 0 .001 0c-.103-.079-.213-.225-.341-.469l.122.212Zm41.498-.885c.435.468.879.922 1.332 1.364l-.672-.672a39.819 39.819 0 0 1-1.306-1.406l.646.714Zm36.922.898a43.18 43.18 0 0 1 .456-.386l-.456.386Zm-107.366-.103c.087.086.164.186.229.299a.413.413 0 0 1 .018.119l-.007-.078a.171.171 0 0 0-.01-.042 1.399 1.399 0 0 0-.23-.298Zm-.027-.025Zm-.144-.119c-.027-.019-.052-.039-.079-.056l-.04-.022c.041.023.08.05.119.078Zm109.819-1.802c-.152.146-.304.291-.456.433l.457-.433c.152-.146.304-.294.456-.443l-.457.443Zm-44.359.395-.101-.137-.025-.027c.045.051.087.106.126.164Zm-.139-.178Zm-.176-.168c-.015-.012-.029-.024-.045-.035.016.011.03.023.045.035Zm-.149-.104-.04-.022.04.022Zm-.171-.085.013.005-.012-.005-.008-.002.007.002Zm51.443-1.391c-.084.099-.17.197-.255.295.085-.098.172-.196.256-.295l3.147-3.65-3.148 3.65Zm-4.626-.308c-.151.16-.302.319-.454.476l.455-.476c.151-.159.303-.321.453-.484l-.454.484Zm-43.529.035.221.275a59.75 59.75 0 0 1-.35-.444l.129.169Zm189.006-53.361a3.321 3.321 0 0 1 2.34 1.161l.001-.001c.758.892.614 2.041.409 3.04-.232 1.127-.739 2.835-1.563 5.465l-.002.005-.353 1.126c-3.607 11.629-5.882 23.071-7.101 36.106l-.001.012-.001.011a17.536 17.536 0 0 1-.427 2.413c-.088.343-.19.677-.306.964a3.508 3.508 0 0 1-.216.448 2.06 2.06 0 0 1-.443.544l-.011.01-.012.01c-.863.706-1.968.723-2.76.52-.737-.189-1.628-.679-2.077-1.586l-.084-.187-.008-.02-.006-.018a2.487 2.487 0 0 1-.131-.699c-.011-.179-.014-.383-.011-.596.006-.43.033-.981.076-1.613.087-1.267.242-2.934.44-4.766.395-3.664.967-8.051 1.519-11.348.777-4.633 2.419-11.565 4.036-17.538.81-2.99 1.619-5.763 2.318-7.905.348-1.07.675-2 .965-2.729.26-.655.565-1.345.903-1.766l.007-.009.007-.008c.665-.804 1.635-1.095 2.492-1.046Zm-190.711 50.939c.068.112.138.223.21.336l-.21-.337a24.735 24.735 0 0 1-.2-.337l.2.338Zm48.818-1.749a70.537 70.537 0 0 1-1.414 1.715l.085-.097c.447-.527.89-1.067 1.329-1.618Zm20.614.789 2.627-.016.111-.002c-.81.008-1.719.014-2.738.018Zm110.245-.176c.022.027.047.051.072.077a1.428 1.428 0 0 1-.09-.102l.018.025Zm-.221-.566c.004.061.009.114.015.158l.025.106-.024-.107a2.37 2.37 0 0 1-.016-.163v.006Zm-99.863-.46a2.915 2.915 0 0 1-.265.298l.158-.166c.039-.044.073-.089.107-.132Zm86.627-18.216c-.044 5.201-.131 10.707-.262 16.426l.091-4.248c.109-5.606.174-10.977.196-16.021l-.025 3.843Zm-87.25 16.207-.148-.095-.012-.006c.058.032.111.065.16.101Zm-8.907-.691a377.553 377.553 0 0 1 .001 0l-3.157-.005h-.001l3.157.005Zm-11.937-3.912a50.159 50.159 0 0 1-.923 1.605l-1.398 2.302 1.399-2.302.457-.778c.152-.263.306-.54.465-.827ZM325.82 96.771c.754-.196 1.774-.194 2.607.427.273.204.43.453.503.577.088.15.16.31.219.454.118.292.234.659.352 1.085.24.859.532 2.11.891 3.826.721 3.44 1.74 8.859 3.204 16.984v.001a1131.883 1131.883 0 0 1 2.692 15.32c.333 2 .597 3.65.77 4.826.086.586.152 1.067.192 1.419.019.174.035.336.042.471.004.066.007.149.005.235 0 .019.002.279-.102.556l-.012.031c-.426 1.059-1.435 1.585-2.24 1.755-.802.17-1.923.094-2.749-.696l-.002.002-.022-.023-.015-.013.001-.001c-.222-.221-.328-.463-.341-.491a2.936 2.936 0 0 1-.102-.256 7.814 7.814 0 0 1-.153-.507 40.59 40.59 0 0 1-.367-1.509c-.284-1.242-.65-2.974-1.067-5.023-.833-4.103-1.879-9.518-2.89-14.93a1052.504 1052.504 0 0 1-2.694-14.937c-.35-2.053-.633-3.788-.817-5.035a40.594 40.594 0 0 1-.201-1.514 7.262 7.262 0 0 1-.04-.518 2.408 2.408 0 0 1 .003-.278 1.59 1.59 0 0 1 .224-.73l.018-.03c.504-.793 1.317-1.277 2.091-1.478Zm205.408 43.423-.153.882a136.13 136.13 0 0 0-.499 3.232l.25-1.673a87.135 87.135 0 0 1 .438-2.635l-.036.194Zm-233.244-27.012c.004.102 3.062 12.177 6.818 26.769l.878 3.433-.877-3.433c-3.755-14.587-6.812-26.659-6.818-26.769l.019-.03c-.013.012-.02.022-.02.03Zm37.807 29.241a1.038 1.038 0 0 1-.079.156l.08-.156.006-.061-.007.061Zm150.96-4.254c.252 1.089.501 2.179.747 3.269l-.746-3.27a642.262 642.262 0 0 0-.764-3.267l.763 3.268Zm-72.593-.13a30.329 30.329 0 0 1 .001 0l.297-.867c-.099.275-.198.564-.298.867Zm-57.173-75.911c.58-.15 1.153-.1 1.682.065.986.31 1.932 1.064 2.86 1.987 4.223 4.2 5.822 9.91 5.643 18.694-.044 2.644-.039 4.036.115 5.282.152 1.229.455 2.357 1.09 4.468l.001.008c.747 2.533 3.679 12.798 6.434 22.842v.001c2.651 9.526 4.059 14.685 4.508 17.446.114.702.178 1.313.172 1.835-.006.506-.079 1.066-.35 1.57-.67 1.245-1.983 1.252-2.499 1.252l-.239-.012c-.549-.055-1.034-.293-1.388-.53a3.923 3.923 0 0 1-1.018-.992l-.117-.176-.008-.015-.01-.015c-.092-.157-.161-.339-.193-.422-.046-.121-.098-.27-.155-.437a58.627 58.627 0 0 1-.429-1.333 294.482 294.482 0 0 1-1.33-4.436 876.576 876.576 0 0 1-3.901-13.81h-.001c-4.012-14.524-5.875-21.143-6.699-24.796-.417-1.847-.587-3.014-.625-4.101-.036-1.03.053-2.017.103-3.285.081-2.455-.034-5.393-.24-6.798l-.042-.26-.001-.004-.119-.583c-.315-1.383-.876-2.902-1.544-4.238-.744-1.49-1.508-2.526-2.043-2.966l-.103-.08-.023-.016-.021-.016c-.808-.622-1.51-1.42-1.765-2.395-.286-1.091.061-2.128.836-2.9a3.112 3.112 0 0 1 1.419-.834Zm58.468 72.7-.061.121c.028-.054.054-.108.082-.16l-.021.039Zm-71.665-3.415a476.146 476.146 0 0 0-.321-3.054l.321 3.054Zm73.124 1.411a7.21 7.21 0 0 0 .001 0l.183-.193-.184.193Zm92.319-6.4c.038 1.068.072 2.159.103 3.276l-.102-3.276a378.428 378.428 0 0 0-.124-3.139l.123 3.139Zm6.577-2.673c.024 1.828.04 3.727.049 5.69v-.207c-.009-1.89-.026-3.719-.049-5.483Zm-32.219 1.372c.276 1.085.548 2.17.818 3.256l-.817-3.256a534.297 534.297 0 0 0-.835-3.251l.834 3.251Zm-44.614-.645c.437.873.875 1.754 1.312 2.639l-1.311-2.639c-.436-.874-.872-1.74-1.304-2.594l1.303 2.594Zm-21.408-3.344-.262 4.129.263-4.129c.014-.228.025-.458.035-.689l-.036.689Zm1.539.156c-.127.351-.26.695-.4 1.031l.205-.509c.066-.172.132-.346.195-.521v-.001Zm.678-2.169a27.46 27.46 0 0 1-.319 1.101l.164-.546c.053-.184.105-.368.155-.554v-.001Zm-2.141-.079c-.003.236-.008.471-.015.705l.016-.705c.003-.236.005-.474.005-.713l-.006.713Zm-75.307-4.146c.082 1.428.197 3.059.338 4.825l-.191-2.54c-.057-.807-.106-1.572-.147-2.286v.001Zm138.697.491c.293 1.079.583 2.159.87 3.24l-.869-3.24a593.988 593.988 0 0 0-.888-3.235l.887 3.235Zm-60.548.305c-.057.388-.12.774-.191 1.159l.101-.578c.032-.193.062-.386.09-.58v-.001Zm88.111-1.17c.035.466.069.934.102 1.406l-.101-1.406c-.034-.465-.071-.927-.108-1.386l.107 1.386Zm-92.016-13.463c1.327 4.245 2.197 9.229 2.473 14.035.42-3.173.323-6.386-.357-8.96l-.147-.523c-.442-1.482-1.113-3.018-1.969-4.552Zm-173.057 13.565-.776-3.909c-.044-.217-.09-.434-.133-.651.304 1.509.609 3.029.909 4.56Zm261.44-.54-.128-1.55c-.012-.148-.027-.295-.04-.442.058.659.115 1.323.168 1.992Zm-84.194-1.3.023-.577.001-.059c-.005.212-.013.424-.024.636Zm118.151-.865-.019.029a1.33 1.33 0 0 1 .085-.119l-.066.09Zm-121.852-1.668c.069.491.131.984.188 1.478l-.089-.741a93.236 93.236 0 0 0-.099-.738v.001Zm-114.312 1.109c-.198.07-.405.141-.62.213l-.249.082.25-.082c.431-.145.827-.283 1.19-.416l-.571.203Zm46.591-.685a13.65 13.65 0 0 1-.856.028l.412-.006a15 15 0 0 0 .444-.022Zm-52.972-.659a17.263 17.263 0 0 0 .138-.059l-.138.059Zm181.945-4.314c.31 1.073.617 2.147.922 3.222l-.921-3.223a405.8 405.8 0 0 0-.001.001Zm-53.973 2.53c.016.168.031.338.044.509l-.043-.509a25.225 25.225 0 0 0-.053-.497l.052.497Zm-122.539-.276Zm.782-.396a.132.132 0 0 1-.016.059c.016-.022.022-.081.02-.174l-.004.115Zm121.576-.775-.078-.45a17.744 17.744 0 0 1 .078.45Zm-7.869-.886c.051.237.101.474.15.712l-.149-.712a51.708 51.708 0 0 0-.157-.705l.156.705Zm7.608-.41a14.13 14.13 0 0 1 .001 0c-.033-.129-.069-.258-.104-.387.035.129.07.258.103.387Zm-121.695-.365-.033-.165a59.564 59.564 0 0 0 .033.165Zm123.912-3.98c.491.734.979 1.483 1.462 2.244l-.728-1.133c-.488-.748-.979-1.483-1.474-2.204l.74 1.093Zm-181.992-.851a639.683 639.683 0 0 1-.655-3.05l.655 3.05Zm171.11 1.512c.132.434.261.876.384 1.325l-.189-.669c-.064-.221-.129-.44-.195-.657v.001Zm7.23-.513c.1.232.197.464.29.696l-.289-.696c-.1-.232-.203-.463-.309-.694l.308.694Zm-49.726-50.367c.72.074 1.42.21 2.063.42l.012.004c3.037 1.022 4.755 2.059 6.704 4.19l.009.01c2.167 2.412 3.47 5.066 3.69 7.706.223 2.679-.685 5.213-2.686 7.254l-.766.786 3.114 12.346v-.001c.321 1.237.628 2.448.92 3.608l-.031.08c-.224.614-.385 1.258-.371 1.883.015.667.237 1.37.824 1.904.199.181.416.32.641.426.146.604.285 1.176.412 1.711.304 1.28.551 2.356.722 3.145.086.392.155.723.203.975.033.178.093.491.093.725 0 2.092-1.895 3.795-4.058 3.133l-.001.001c-.045-.012-.344-.086-.61-.22a2.353 2.353 0 0 1-.843-.728c-.379-.516-.666-1.287-.989-2.33-.676-2.19-1.771-6.539-3.97-15.264l-3.192-12.647-.219-.87.664-.606 2.097-1.912.001.001c.902-.853 1.241-1.247 1.401-1.532.102-.183.164-.366.164-1.01 0-.785-.356-1.86-1.07-2.958-.702-1.08-1.657-2.033-2.648-2.614-1.67-.95-3.481-1.251-6.382-.77h-.005l-.438.062c-1.03.12-2.099.063-2.95-.443a2.651 2.651 0 0 1-1.169-1.417c-.202-.578-.194-1.175-.088-1.723l-.001-.001.003-.01.004-.026H364c.213-1.115 1.126-1.795 1.816-2.172.775-.423 1.736-.724 2.72-.916a14.692 14.692 0 0 1 1.598-.219l2.61.019Zm134.07 47.503c.132.891.257 1.778.377 2.662l-.184-1.33c-.063-.443-.127-.887-.193-1.333Zm-85.327.793c.118.228.234.457.346.686l-.345-.686a38.68 38.68 0 0 0-.365-.683l.364.683Zm-7.329-.511c.078.194.155.392.23.59l-.229-.59a40.264 40.264 0 0 0-.001 0Zm-67.572.565a2.331 2.331 0 0 1 .001 0l.02-.002a1.49 1.49 0 0 0-.021.002Zm-1.432-.19a4.562 4.562 0 0 0-.324-.123l.324.123Zm-1.369-.655c.076.045.153.087.228.13a13.923 13.923 0 0 1-.297-.173l.069.043Zm-1.151-.78c.134.1.265.195.395.286l-.395-.287c-.133-.1-.268-.204-.405-.313l.405.314Zm77.706-.462c.136.224.27.447.401.672l-.4-.671a32.916 32.916 0 0 0-.417-.666l.416.666Zm-78.955-.56c.144.127.287.249.428.367l-.427-.367c-.144-.127-.29-.259-.437-.395l.436.395Zm-46.589.285a14.252 14.252 0 0 0-.475-.032l.475.032Zm126.831-1.983a95.19 95.19 0 0 1 1.51 1.977l-.754-1.002a91.293 91.293 0 0 0-1.511-1.927l.755.952Zm-130.081 1.434c.1.03.201.055.302.082-.252-.067-.502-.14-.749-.221l.447.14Zm211.116-1.521c.077.479.154.958.229 1.438l-.228-1.438c-.078-.48-.158-.959-.239-1.438l.238 1.438Zm-90.429 1.316a3.107 3.107 0 0 0-.145-.01l-.202-.002h-.001c.127 0 .242.003.348.012Zm-66.541-.601c.031.017.063.032.093.047a9.086 9.086 0 0 1-.357-.197l.264.15Zm71.402-2.874a37.14 37.14 0 0 1 1.948 2.526l-.463-.645a37.62 37.62 0 0 0-2.007-2.49l.522.609Zm-122.08.794.567.017-.566-.017c-.048-.003-.096-.009-.143-.012l.142.012Zm-52.635-1.073-.051-.223a131.743 131.743 0 0 0 .051.223Zm101.323-1.344-1.389 1.2 1.39-1.2.891-.778.029-.025a98.7 98.7 0 0 1-.921.803Zm-38.476-8.473c-.043-6.558-6.116-10.976-12.58-9.036l-.163.053c-.839.3-2.004 1.055-3.127 2.075-1.198 1.088-2.102 2.255-2.439 3.083l-.005.015c-.348.83-.67 2.54-.67 3.679 0 5.32 4.115 9.5 9.349 9.538h.01c5.509.075 9.625-3.994 9.625-9.407Zm90.313-21.018c.403 0 .984.011 1.548.283 1.169 2.031 1.905 3.987 2.126 5.637l.035.291.001.013.095.835c.032.255.064.488.1.695.068.395.169.841.378 1.24.184.35.436.634.752.845.125.611.223 1.16.27 1.64.073.737.068 1.594-.349 2.346-.466.838-1.245 1.217-1.96 1.405-.68.178-1.512.241-2.398.284l-1.196.06v1.57c0 3.911-.987 7.458-2.949 10.504-.542.85-1.055 1.602-1.661 2.07-.351.27-.743.46-1.189.546-.402.078-.78.057-1.098.019h-.001l-.025-.003-.015-.001.001-.001a3.565 3.565 0 0 1-1.137-.307 525.425 525.425 0 0 0-1.063-4.293c.229-.608.55-1.276.946-1.997l.008-.016.008-.014c1.561-2.698 2.089-5.483 1.672-8.19l-.096-.54v-.004l-.312-1.57c-.276-1.404-.439-2.331-.459-2.93-.014-.412.013-1.058.462-1.613.398-.492.981-.675 1.064-.707l.001.002c.41-.162.833-.163 1.056-.155.3.01.626.051.945.107.639.112 1.376.307 2.07.544.148.048.293.094.433.136-.061-.293-.131-.61-.211-.94l-.176-.687-.002-.009-.194-.765a24.842 24.842 0 0 1-.412-1.954c-.117-.735-.172-1.448-.066-2.08.115-.688.441-1.376 1.135-1.826.616-.399 1.315-.47 1.863-.47Zm18.808 28.184c.387.37.767.75 1.138 1.137l-.563-.576a36.95 36.95 0 0 0-1.162-1.112l.587.55Zm-76.177.656c-.082.026-.165.05-.25.074l.25-.073.246-.08-.246.08Zm175.919.041-.048-.629-.161-1.948c.071.861.141 1.72.209 2.577Zm-126.377-.186Zm-48.585-.217a8.282 8.282 0 0 1-.233.101l.234-.101c.078-.035.155-.071.231-.109l-.232.109Zm.684-.349a6.786 6.786 0 0 1-.225.124l.225-.123c.074-.042.148-.087.222-.132l-.222.131Zm1.198-16.42c-3.003-2.962-7.343-3.55-11.275-1.41h-.003l-.256.144c-5.289 3.076-6.189 10.468-1.737 14.793l.402.374c.921.826 1.722 1.344 2.568 1.674.972.379 2.118.554 3.753.534h.019c1.626 0 2.824-.203 3.84-.624 1.008-.419 1.943-1.097 2.975-2.203l.009-.01.01-.009c1.058-1.093 1.66-1.962 2.02-2.875.363-.918.529-2.002.529-3.6v-.01l.001-.01c.02-1.592-.138-2.645-.495-3.542-.314-.788-.821-1.553-1.676-2.503l-.388-.419-.01-.009-.286-.295Zm75.43 15.659-.074-.079-.29-.294.364.373Zm-121.518-9.78a5.31 5.31 0 0 1 1.531.138c.475.119 1.039.347 1.486.79.603.6.831 1.415.918 2.06.092.686.058 1.429-.06 2.127a7.748 7.748 0 0 1-.639 2.06c-.295.61-.743 1.276-1.405 1.713l-.007.006-.007.005v-.001c-1.09.722-2.289.736-3.308.266-.948-.438-1.668-1.25-2.133-2.1-.876-1.603-1.254-4.254.645-5.966l-.001-.001c.837-.756 2.027-1.05 2.98-1.097Zm26.786 9.432-.209.032c.336-.052.537-.08.569-.081l-.36.049Zm.383-.091.002-.005-.003-.02c.001.01.002.018.001.025Zm177.85-8.126c.282 1.465.697 3.557 1.151 5.816a222.327 222.327 0 0 1 .001 0c-.454-2.26-.869-4.352-1.152-5.817v.001Zm-87.388 7.771-.62-.508-.123-.097c.25.198.498.4.743.605Zm-86.094-.496c.079.082.16.162.242.242l.18.167c-.059-.056-.12-.11-.179-.167a11.428 11.428 0 0 1-.474-.488l.231.246Zm43.067-20.074c.773-.288 1.842-.566 2.878.03.893.514 1.392 1.5 1.776 2.39 1.946 4.513 2.416 9.46 1.098 13.49-.398 1.232-.93 2.326-1.687 3.053-.396.381-.886.69-1.47.83a2.914 2.914 0 0 1-1.512-.05l-.203-.068-.006-.002-.173-.07a2.838 2.838 0 0 1-1.087-.816 2.868 2.868 0 0 1-.598-1.437c-.126-.927.118-1.975.48-3.035l-.001-.001c.753-2.246.747-4.522-.227-7.587-.521-1.642-.858-2.952-.894-3.942-.018-.508.035-1.083.304-1.614a2.392 2.392 0 0 1 1.314-1.168l.008-.003ZM240.902 87.276a.45.45 0 0 1 .049.069l-.048-.07c-.048-.053-.097-.102-.144-.149.047.047.095.097.143.15Zm80.631-.284-.121-.264-.014-.027.135.291Zm87.817-1.232a31.327 31.327 0 0 1-.52-.335l.52.335Zm-84.32.067c.041.067.085.133.128.198a10.017 10.017 0 0 1-.295-.474l.167.276Zm46.111.08.028.005a1.565 1.565 0 0 1-.136-.033l.108.028Zm-.405-.146c.058.03.121.056.186.08l-.185-.08a1.402 1.402 0 0 1-.165-.097l.164.097Zm-22.801-.202.028-.061c.015-.035.027-.07.041-.105a5.386 5.386 0 0 1-.069.166Zm8.728-.214.007-.045c.009-.057.015-.114.023-.171l-.03.216Zm13.402-.42c.016.065.037.126.06.183l-.059-.183a1.559 1.559 0 0 1-.039-.202l.038.203Zm-49.456.031a8.35 8.35 0 0 1-.106-.309l.106.31Zm3.946.03c.031.061.064.12.096.181a10.87 10.87 0 0 1-.235-.468l.139.287Zm6.985-8.698c1.457-.874 3.617-1.05 5.127.599l.018.02c1.575 1.78 1.255 4.09.021 6.085h-.001c-.971 1.598-2.61 2.496-4.343 1.964-1.509-.464-2.53-1.858-2.957-3.55l-.078-.342-.002-.013-.034-.198c-.298-2.022.837-3.718 2.249-4.565Zm41.329 8.8.04-.05c.026-.036.05-.075.076-.114-.038.057-.078.111-.116.164Zm33.985-.65-.179-.054-.021-.006c.065.018.132.038.2.06Zm-50.04-.373-.01.103.011-.103c.015-.164.026-.33.035-.5l-.036.5Zm-33.306-2.363c.124.82.341 1.631.655 2.415l-.113-.296a10.893 10.893 0 0 1-.583-2.427l.041.308Zm193.056-2.987a1072.797 1072.797 0 0 1-.402-4.258l.402 4.258Zm-231.823 3.742a11.862 11.862 0 0 0 .001 0l.012-.428a7.982 7.982 0 0 0-.013.428Zm124.59.498c.217.135.436.275.658.423l-.658-.424a20.733 20.733 0 0 0-.646-.383l.646.384Zm-99.197-1.106a46.637 46.637 0 0 1 .001 0c-.011-.258-.026-.51-.045-.758l.044.758Zm158.702-5.527a574.115 574.115 0 0 1 2.251 6.502l-1.126-3.284c-.375-1.085-.751-2.16-1.125-3.219v.001ZM356.87 82.523l-.016-.539-.001-.013c.009.186.014.37.017.552Zm50.873-.449c.103.05.206.102.31.156l-.31-.157c-.103-.05-.206-.098-.308-.144l.308.145Zm-76.725-.51c.02.053.042.104.063.156a4.928 4.928 0 0 1-.147-.409l.084.252Zm-33.953-.174-.007-.014-.017-.024.024.038Zm-.185-.239.022.024-.022-.025a.986.986 0 0 0 0 .001Zm-.342-.238c.033.017.065.034.096.052l-.096-.053a1.997 1.997 0 0 0-.214-.09l.214.091Zm115.881-.373Zm-89.031-.691c-.002.102-.002.205-.001.308l.002-.308c.002-.104.005-.207.01-.31l-.011.31Zm87.112-.542c.117.064.234.13.353.2l-.353-.201a13.06 13.06 0 0 0-.344-.184l.344.185Zm-1.551-.71c.176.061.359.13.545.21l-.318-.13c-.076-.029-.153-.054-.227-.08Zm-2.667.004-.016.01c.036-.023.074-.045.112-.065l-.096.055Zm-120.835-.197c-.012.031-.022.063-.033.095.037-.106.075-.207.114-.3l-.081.205Zm50.114-.504a2.754 2.754 0 0 1 .001 0 2.44 2.44 0 0 0-.001 0Zm-11.535-1.536Zm.163-.43-.022.055c.046-.114.094-.227.143-.34l-.121.286Zm-13.117-.992a6.548 6.548 0 0 0-.154-.408l.154.408Zm33.067-.213-.023-.04c-.067-.106-.139-.21-.212-.317.082.12.161.238.235.356Zm-36.223-.335c.059.085.117.17.173.256l-.172-.256c-.059-.086-.121-.17-.182-.254l.181.254Zm-.144-2.556h-.002c.377.405.724.816 1.041 1.235l-.002-.004a6.13 6.13 0 0 0-.427-.816l-.089-.122-.013-.016-.013-.016a2.536 2.536 0 0 0-.23-.258l-.036-.004a2.046 2.046 0 0 0-.229 0Zm-1.178-1.375-2.011.305 1.662 1.65c.12.12.236.243.35.364-.114-.12-.229-.243-.349-.363l-1.662-1.651 2.011-.305.562-.074c-.171.02-.357.044-.563.074Zm44.041 2.025Zm-58.421-.374a4.619 4.619 0 0 0 .001 0l.127-.036-.128.036Zm99.44-22.762a196.055 196.055 0 0 0 4.274 3.403 50.406 50.406 0 0 0 2.49 1.82c.319.212.624.403.896.548.135.072.297.152.471.218.115.044.381.14.718.163l.104.004c2.808 3.696 4.699 7.518 5.034 10.662l.05.558c.091 1.287 0 2.484-.455 3.42-.28.575-.715 1.082-1.333 1.4-.532.275-1.1.36-1.648.333l-.233-.019-.018-.002c-.263-.031-.679-.083-1.073-.255a2.296 2.296 0 0 1-.357-.196c-.075-.363-.158-.75-.251-1.156l-.002-.006-.365-1.5a133.712 133.712 0 0 0-.783-2.953l-.317-1.11c-.132-.456-.26-.872-.402-1.223-.142-.35-.336-.74-.647-1.074a2.383 2.383 0 0 0-.72-.534c-.982-1.708-2.269-3.47-3.821-5.143h-.001c-.799-.85-1.456-1.62-1.952-2.308-.481-.666-.882-1.353-1.067-2.028-.196-.713-.193-1.632.478-2.377.27-.3.595-.503.93-.645Zm3.689 22.343c.006.068.009.129.01.181l-.006-.145-.004-.036Zm-.026-.254Zm-67.443-.18a10.59 10.59 0 0 1 .274-.189l-.274.19Zm1.142-.711-.196.11.197-.11c.045-.025.091-.048.136-.072-.045.025-.092.047-.137.072Zm69.484-1.44a111.924 111.924 0 0 0-.393-1.52l.393 1.52Zm3.317 1.206c.017.004.035.005.053.008a1.939 1.939 0 0 1-.204-.046l.151.038Zm-52.677-.087-.184-.223a8.618 8.618 0 0 1 .184.224Zm-19.249-.113a10.706 10.706 0 0 0 .059-.025l-.059.025Zm71.335-.127a.76.76 0 0 0 .089.1l-.088-.1a1.005 1.005 0 0 1-.077-.123l.076.123Zm2.283.022c-.03.027-.061.053-.092.078l.092-.077c.03-.028.059-.057.087-.087l-.087.086Zm111.718-4.68c.167 1.566.33 3.118.486 4.643l-.485-4.643c-.167-1.567-.34-3.149-.516-4.735l.515 4.734Zm-114.204 4.203c.008.028.018.054.026.08a3.437 3.437 0 0 1-.079-.294l.053.214Zm-30.285-.753a3.3 3.3 0 0 0-.437.11l-.253.09.253-.088c.156-.05.301-.088.437-.112Zm-49.342-3.18a1.353 1.353 0 0 1-.147-.023l.147.023Zm76.022-.489-.173-.577a21.023 21.023 0 0 1 .173.577Zm-56.8-12.6c1.71-.173 3.83.132 5.706.976 1.306.582 2.368 1.174 3.113 1.871.806.755 1.272 1.666 1.272 2.757 0 .593-.135 1.271-.599 1.834-.483.586-1.144.836-1.764.898-1.108.109-2.403-.349-3.676-.99l-.001.001c-1.226-.59-2.573-.938-3.458-.938-1.086 0-2.166-.142-3.01-.666-.988-.614-1.418-1.595-1.418-2.66 0-1.132.693-1.913 1.42-2.355.701-.427 1.567-.642 2.415-.728Zm169.51-1.608c.388 3.22.762 6.463 1.122 9.718l-.55-4.873a968.47 968.47 0 0 0-.572-4.846v.001ZM311.642 52.49c1.792-.416 4.024-.477 5.953.045l.382.113.012.002.011.004c1.415.476 2.539.926 3.313 1.476.41.291.786.654 1.051 1.124.272.484.373.988.373 1.474 0 1.122-.375 2.367-1.551 2.992-.961.51-2.033.367-2.956.008l-.386-.166-.009-.004-.386-.18c-1.899-.841-3.281-.931-4.818-.509-1.15.325-2.375.476-3.401.044a2.722 2.722 0 0 1-1.336-1.186c-.295-.528-.395-1.106-.395-1.652 0-1.207.805-2.034 1.509-2.512.738-.501 1.676-.85 2.634-1.073Zm71.139 7.534-.025-.055c-.049-.103-.103-.204-.156-.307.062.12.123.241.181.361Zm-37.461-1.515.149.072-.15-.073c-.169-.081-.342-.16-.517-.234l.518.235Zm115.935-1.952.412.996c.144.332.29.675.439 1.028l-.438-1.03a58.94 58.94 0 0 1-.413-.994Zm-142.44 1.787Zm-.332-.139a14.944 14.944 0 0 0-.363-.168l.363.168Zm2.506-.321.051-.1.038-.092a1.703 1.703 0 0 1-.089.192Zm-10.961-.28a2.1 2.1 0 0 0 .24.048l-.24-.049a1.558 1.558 0 0 1-.111-.033l.111.034Zm2.205-.182a8.856 8.856 0 0 1-.39.102l.39-.101.383-.098-.383.097Zm-2.611.01c.029.02.06.036.092.052l-.091-.051a1.047 1.047 0 0 1-.086-.058l.085.058Zm24.421-57.2c1.42 0 4.404.321 6.69.67V.898l2.605.348-.046.32L365.1 4.732l.042-.28 3.818.581h.001c2.013.308 3.892.64 5.305.924a37.41 37.41 0 0 1 1.772.393c.225.057.447.12.637.183.093.031.213.074.336.13.058.026.375.164.663.45l.065.065.058.07c.177.21.273.412.301.473.043.09.075.175.097.234.044.12.082.248.114.36.066.232.14.528.218.863.158.676.355 1.605.578 2.713.447 2.22 1.007 5.214 1.577 8.463l.002.01c.546 3.214 1.058 6.197 1.45 8.405.196 1.106.362 2.01.485 2.65.04.21.077.387.106.53.109.104.248.235.418.392.533.49 1.305 1.175 2.267 2.01a446.578 446.578 0 0 0 7.428 6.276l.007.006a517.901 517.901 0 0 1 7.493 6.37 119.32 119.32 0 0 1 2.351 2.09c.284.261.528.492.712.677.089.09.188.193.275.295.043.05.106.127.169.218.029.041.176.248.277.549h.001l.008.031.018.052-.002.001c.375 1.226-.053 2.387-.632 3.137-.597.774-1.61 1.457-2.862 1.457l-.046-.002a43.23 43.23 0 0 0-3.063-3.596l-.005-.007c-.935-.972-1.687-1.697-2.359-2.158-.742-.51-1.494-.772-2.368-.685l-.033.003a4.181 4.181 0 0 0-1.125.287c-.57-.465-1.169-.954-1.792-1.468a3.617 3.617 0 0 0-.425-1.633l-.01-.018-.009-.016a2.484 2.484 0 0 0-1.135-1.083c-.49-.233-1.073-.33-1.698-.39-.167-.017-.351-.031-.552-.044l-2.52-2.102a2562.713 2562.713 0 0 1-3.475-2.913l-2.409-2.024-.692-.58-.196-.164-.061-.05-.087-.07-.078-.077c-.279-.278-.409-.58-.425-.613a2.69 2.69 0 0 1-.097-.243 5.075 5.075 0 0 1-.104-.344c-.059-.22-.126-.504-.198-.828-.146-.656-.331-1.568-.543-2.66-.424-2.192-.963-5.163-1.511-8.39l-.782-4.553a497.11 497.11 0 0 0-.667-3.757c-.164-.902-.307-1.657-.42-2.23a177.9 177.9 0 0 0-2.13-.362 753.244 753.244 0 0 0-7.619-1.199c-4.997-.764-10.202-1.525-12.446-1.8l-.772-.088h-.01l-.012-.002c-.963-.102-3.052-.401-5.193-.727l-2.119-.33-.015-.001-.017-.003c-3.228-.564-5.299-.82-6.634-.84-.775-.011-1.135.065-1.271.104-.05.08-.135.217-.256.428-.235.408-.539.965-.894 1.636-.708 1.34-1.595 3.09-2.482 4.919l-.004.009-.004.008c-1.85 3.722-5.578 10.83-8.297 15.801l-.002.002-4.938 8.996-.217.394-.363.264-4.857 3.516c-.656.014-1.198.04-1.646.08-1.093.097-1.998.302-2.678.978-.561.558-1.045 1.3-1.096 2.197-.012.224.005.438.043.642l-1.524 1.104c-5.861 4.257-9.233 6.656-11.27 7.748-.957.513-2.041.984-3.132.872-1.208-.124-1.906-.871-2.296-1.425l-.15-.224-.011-.02-.013-.02c-.088-.145-.31-.51-.416-.985a2.666 2.666 0 0 1 .159-1.641c.345-.81 1.085-1.507 1.833-2.148 1.644-1.407 4.948-3.819 11.151-8.347l.004-.002 10.528-7.65 3.675-6.572h.001c2.12-3.784 5.775-10.836 8.175-15.61 2.489-5.076 4.121-8.205 5.655-10.011.823-.968 1.705-1.67 2.773-2.087 1.033-.404 2.075-.476 3.062-.476Zm6.804 57.184.358.005a8.618 8.618 0 0 1-.358-.005Zm-31.464-.176c.024.025.048.048.074.07l-.073-.07a1.216 1.216 0 0 1-.067-.076l.066.076Zm-.305-.547c.01.037.022.072.035.107l-.034-.107a1.826 1.826 0 0 1-.03-.11l.029.11Zm12.148-.165-.03-.176-.003-.008c.014.06.026.121.033.184Zm46.346-.147h.008a6.492 6.492 0 0 0-.008 0Zm-1.732-.402c.015.013.032.024.048.036a1.197 1.197 0 0 1-.124-.106l.076.07Zm147.304-8.924a1356.6 1356.6 0 0 1 1.033 8.781l-.547-4.72c-.161-1.37-.325-2.726-.486-4.061Zm-222.457 8.353-.209.041c.066-.01.137-.023.21-.04l.23-.065c-.08.026-.158.047-.231.064Zm173.555-.82c.104.218.217.46.338.725l-.337-.725a19.888 19.888 0 0 0-.287-.574l.286.575Zm-171.312-.25c.123-.073.25-.15.382-.232l.476-.301c-.308.197-.594.375-.858.534Zm24.591-.262.044.015-.043-.015c-.059-.019-.12-.036-.181-.053.061.017.121.034.18.053Zm145.81-1.015c.067.078.134.162.199.252l-.198-.253a3.641 3.641 0 0 0-.206-.22l.205.22Zm-71.103.023c.017.027.038.053.056.081a7.582 7.582 0 0 1-.184-.289l.128.208Zm-17.888-.311a27.895 27.895 0 0 1 0-.002c-.077-.025-.156-.047-.235-.07.08.023.158.046.235.072Zm21.5-.457.617.63a44.041 44.041 0 0 0-.654-.667l.037.037Zm-27.347.351-.231.056c.182-.046.369-.087.561-.124l-.33.068Zm93.688-.395c.07.016.14.038.21.066l-.104-.038a1.406 1.406 0 0 0-.209-.05l.103.021Zm-66.531-6.658c3.79 3.223 6.511 5.627 6.576 5.855l.044.173a1.183 1.183 0 0 0-.043-.174c-.068-.23-2.79-2.634-6.578-5.855l.001.001Zm-80.596-1.773c3.55.044 17.529.218 31.114.391v.001c13.613.131 28.434.303 33.082.347v.001c3.358.019 5.456.036 6.783.12l1.671 1.395c.749.626 1.47 1.221 2.158 1.789.003.315-.038.632-.133.942a2.95 2.95 0 0 1-1.817 1.908v.001l-.008.002c-.01.004-.019.009-.029.012v-.002c-.209.076-.409.098-.443.102-.094.011-.199.02-.303.026-.21.014-.484.025-.809.034-.653.019-1.564.032-2.689.04-2.252.014-5.398.01-9.133-.011-.571-.004-1.157-.01-1.754-.013a14.28 14.28 0 0 0-2.61-.019c-6.743-.052-14.775-.142-22.793-.253-9.831-.136-19.645-.3-27.041-.463-3.696-.08-6.794-.161-8.989-.236a126.195 126.195 0 0 1-2.597-.108 19.992 19.992 0 0 1-.762-.055 4.451 4.451 0 0 1-.295-.037 2.017 2.017 0 0 1-.201-.043c-.014-.003-.229-.054-.46-.205l-.101-.072-.034-.027-.032-.028c-.483-.423-.862-.985-.99-1.655l5.377-3.897c.99-.02 2.243-.013 3.838.013Zm17.879 5.092a4056.197 4056.197 0 0 0-6.641-.12l6.641.12Zm-25.115-.68c.003.002.009.002.016.005-.007-.003-.013-.003-.016-.006a1.385 1.385 0 0 1-.041-.038l.041.039Zm-.13-.124.019.017c-.016-.015-.03-.03-.044-.046l.025.029Zm80.509-.992a2.53 2.53 0 0 1-.088-.188l.088.188Zm-86.847-2.883c-1.522 1.111-2.866 2.092-4.048 2.958 1.182-.866 2.525-1.846 4.047-2.957l10.884-7.91-10.883 7.909Zm86.587 2.451a.904.904 0 0 0-.064-.064l-.009-.007c.026.023.05.046.073.071Zm.093-7.49c1.109.935 2.297 1.932 3.531 2.954l2.111 1.772c-.683-.577-1.389-1.17-2.11-1.773a544.209 544.209 0 0 1-3.532-2.953Zm-68.193-9.519-2.754 5.019 2.755-5.019 1.058-1.947.121-.226c-.407.756-.803 1.485-1.18 2.173Zm191.17.767c.155 1.102.316 2.278.482 3.515l-.481-3.514a372.055 372.055 0 0 0-.442-3.075l.441 3.074ZM378.29 18.329c.139.768.279 1.562.421 2.371l.785 4.584c-.246-1.426-.51-2.977-.784-4.585-.142-.809-.283-1.602-.422-2.37Zm-50.192-4.365a269.746 269.746 0 0 1 .001 0l.6-1.224c-.199.402-.4.81-.601 1.224Zm46.117 1.346-.06-.335-.271-1.465c.099.52.209 1.126.331 1.8Zm2.049-6.778.023.04c-.009-.019-.016-.033-.023-.04-.009-.01-.027-.019-.049-.03.022.011.04.02.049.03Zm-35.797-5.65 9.747 1.305 3.89.608 14.555 2.216c.246.037.491.078.733.116-.241-.038-.486-.079-.732-.116l-14.555-2.217-3.89-.608-9.747-1.304a63.852 63.852 0 0 0-.001 0Zm-5.719-.63-.158-.008-.1-.003.258.012Zm-7.937 310.116.194-.5.096-.232a26.06 26.06 0 0 0-.29.732Zm122.682-6.975ZM324.143 76.055Z"/></svg>