<svg xmlns="http://www.w3.org/2000/svg" fill="none" viewBox="0 0 621 645"><path fill="#2856F8" d="m297 501 5 13H116v35h207l14 13a25215 25215 0 0 0-53-1v50h25a2032 2032 0 0 0 25-1h6c5 1 8 3 11 6 3 5 3 9 3 14v5c0 4-1 6-3 8l-6 2-4-3-1-18-169-1v18c-3 4-3 4-6 4-3-1-4-1-6-4v-10l-1-2c0-6 1-10 6-15 3-3 5-4 10-4h4l4 1h47v-50h-11a8755 8755 0 0 1-95 1h-3c-5 0-8 0-12-3-5-5-4-9-4-15v-18l-1-5v-3c0-6 2-9 5-14 4-2 5-2 9-2l3-1 3 1a5003 5003 0 0 0 16-1h8a8375 8375 0 0 1 85 0h5a17535 17535 0 0 0 60 0ZM680 80l-34 533c-44 0-121-2-188-12v-1c6-3 13-6 16-12 1-4 0-7-2-11a11195 11195 0 0 0-10-14c-5-3-5-3-17 0l-2 1c-7 2-14 4-19 9-2 6-2 6 3 18v2l2 3c-29-6-55-13-73-23l-19-11a8155 8155 0 0 1 48 0h10l9-3c4-4 5-8 5-14v-2a3438 3438 0 0 0 0-20v-3c0-5 1-10-3-14-5-4-8-5-15-5h-3a1255 1255 0 0 0-66 0h-25c-6-15-10-30-19-43 5-8 11-15 18-22l7-7v-7l-5-3c-5 1-5 1-11 6l-17 21-12-10a97 97 0 0 1 9-8c17-16 34-25 55-32v3c2 4 2 4 5 5h2l-1 2c-13 15-21 31-25 50-2 11-4 27 2 37h8l3-5-1-2v-7c0-26 8-48 26-67l15 5h2l-2 6-1 2-2 7c-1 4-3 8-1 12 5 3 5 3 14 1l15-3h3l4-1a3777 3777 0 0 0 1 31v3c0 5 0 9 3 13h7c2-1 3-2 3-5v-9a3387 3387 0 0 0 0-23v-6a8178 8178 0 0 0 0-7c-2-5-3-6-7-9-6-3-6-3-24 0l-3 1 3-10v-3l1-5c-2-3-2-3-7-5-10-3-20-7-29-13-7-10-7-10-8-22 0-5-1-7-4-11l-7 1c-3 5-3 5 0 20l1 2c-29 6-52 24-71 45l-1-1-13-8 23-18 2-1 17-11 3-2a2734 2734 0 0 1 17-9c3-2 3-3 4-6l-2-6h-7l-4 1 1-9v-8a1313 1313 0 0 1 0-15v-12c-2-3-2-3-5-4l-6 1c-2 3-2 3-2 9v3a2319 2319 0 0 0 0 21v3c0 5 0 9 3 13l2 1a342 342 0 0 0-56 39c-9-11-14-24-17-38l1-1c2-2 3-4 3-7v-22h8l3-1a1582 1582 0 0 0 32-6c9-3 9-3 21-23a6071 6071 0 0 0 7-12c2-4 4-5 8-5l5-1c10-6 16-17 19-27 1-6 1-11-2-17-4-6-7-9-14-12-7-1-13-2-19 3v7c2 2 2 2 5 2l12 2c3 2 4 3 5 6-1 8-1 8-5 15l-1 3-2 4-10 1-7-1-3 5c-1 4-1 7-3 10l-1 2-1 2-2 2-6 10c-6 8-10 12-20 14h-3a3683 3683 0 0 1-21 4h-3l-9 2c0-27 1-53-9-68-4-5-10-10-17-13v-1l3-8 1-3 3-9c0-5-1-7-3-11l-7-6c-4-5-4-10-4-16 2-4 4-6 8-8 4-3 8-4 11-9l2-5c4-8 9-14 17-18 20-5 37 2 55 10 5 2 9 3 14 2 10-2 19-4 28 0 7 6 9 13 10 21v2c1 5 1 9 4 12l4 2c7 5 12 9 13 17 1 10-3 19-9 26l-6 6c-1 4-1 6 1 9 3 6 4 9 3 15-9 16-9 16-25 26l-8 6-1 5 3 5h6c12-6 24-15 33-27 5-8 7-17 5-27v-1l11-1c11-3 21-7 28-17 6-11 7-22 5-34-3-15-8-27-21-36-11-6-21-5-33-2l-3 1v-2c-3-8-6-13-13-17-10-6-20-6-31-4-10 1-10 1-20-3-16-7-35-13-52-8-12 5-22 10-28 22-2 6-4 9-9 12l-5 3c-6 5-10 10-11 18 0 9 2 17 8 24l4 4c1 6 1 6-1 11l-1 3-2 6c-42-15-110-19-144-77-36-61-15-185 0-239l602-90 58 241ZM241 611h30v-50h-30v50Zm188-15a658 658 0 0 0 27 6c-6 3-12 6-19 5-5-3-7-6-8-11Zm26-21 5 10-6 3-2 2-9 4-3-4-1-4-2-7 3-1 3-1 12-2Zm-59-26h-73c-10-11-17-23-21-35h94v35Zm62-73-6 3c-4 5-4 7-3 12v4l1 21c1 5 3 7 6 9 7 1 7 1 21-1l4-1 7-2c3-2 5-3 5-7 0-5 0-8-4-12l-2-2-3-3-2-2c-7-7-14-17-24-19Zm5 18 15 17-15 2-2-19h2Zm-240-84 10 10c-15 12-29 26-40 42l-2 2-12 21-2 3-3 5c-3 6-3 6-7 8l-5-2c-2-2-2-2-2-5 0-5 3-9 6-14l1-3c15-25 34-48 56-67Zm47 36 8 12c-5 10-8 20-9 32l-4 7h-6c-3-2-3-3-4-7 1-16 6-31 15-44Zm-90-71c4-2 6-2 9-1l4 4-1 6-8 5-2 1-6 3-18 10a2018 2018 0 0 1-24 14l-3 2c-3 3-6 5-8 10a220 220 0 0 0-1 31v9l-1 3c0 14 0 14-5 19h-5c-3-3-4-4-4-8v-8l1-4a5910 5910 0 0 0 1-25c0-14 1-26 12-36l8-5 2-2a986 986 0 0 1 19-10l2-2 2-1a3101 3101 0 0 1 26-15Zm67 54 11 7-15 16c-4 6-4 6-9 7l-5-3c0-10 7-16 13-23a3167 3167 0 0 1 5-4Zm202-27c-4-1-8 0-12 1l-4 1-13 4-5 5c0 3 0 3 2 5 4 3 4 3 15 0h2c6-2 12-3 17-6 2-3 2-3 1-6l-3-4Zm-13-109c-5 0-6 1-8 6l-1 3-1 3a265 265 0 0 1-22 61l-2 3c-3 6-5 12-5 19 3 3 3 3 6 3s3 0 5-2c12-24 40-67 32-95l-4-1Zm-266 19 5-1 3 1 1 2c2 9 2 9 8 16l16 1 3 41-6 1c-3-3-3-3-3-5v-24l-4 1c-8 0-15-4-20-10-4-5-5-10-5-16v-3l2-4Zm180 8c-4-1-5 0-9 2-1 11-1 24 4 34l7 1c3-3 4-4 4-8v-3l-1-4v-4c0-7 0-13-5-18Zm59-39c-11 1-11 1-32 44l-1 2-8 19c0 4 0 4 2 7h7c3-1 4-3 5-6l2-3 2-4c6-14 12-26 20-38l3-3 2-3c3-4 4-7 3-12-2-3-2-3-5-3Zm-221 10h2l5 3v7c-3 3-4 3-9 3h-7c-3 0-6 0-9-2-2-1-2-1-2-5 0-5 2-6 7-6h13Zm-24-46 13 5a3025 3025 0 0 0-7 18h10l5 1 1 5c-1 4-2 4-6 6l-10 1h-2c-4 0-7 0-11-2-2-3-2-6-1-10a84 84 0 0 1 4-12l2-8 2-4Zm318-75c-8-6-17-7-26-3-8 5-11 12-15 20l-1 4-20 59-1 3h-4c-4 0-4 0-6 3l-1 6c2 3 4 4 7 5l2 1a1862 1862 0 0 0 28 11c4 1 8 2 12 0l1-3c0-4 0-4-2-7l-2-2 9-18 4-7 11-21 4-6c4-8 10-17 10-27-1-7-4-13-10-18Zm-14 7c5 1 8 3 10 8 1 3 2 6 1 9l-2 3a437 437 0 0 1-10 19l-16 30-2 2-6 13-2 2-10-3 1-7a533 533 0 0 0 17-49l1-3c2-7 4-15 8-21 4-2 6-3 10-3Zm-139 10c10-3 18-3 28 2 10 12 10 12 13 28 1 8 1 16-3 23-7 9-16 11-27 12l2-4c6-9 7-20 6-31-2-7-6-14-13-18l-6-5v-7Zm-105 51c-10-6-20-7-30-2-4 2-5 3-6 7l6 6a34219 34219 0 0 1 17-2l5 3 8-1 3-5-3-6Zm-17-48c-4 1-5 1-6 6 1 4 2 6 5 9l3 2c10 11 20 19 34 23 6 2 13 4 18 1 2-3 2-6 1-9l-5-3c-16-2-30-11-41-23-3-4-4-5-9-6Z"/></svg>